<svg width="19" height="19" viewBox="0 0 19 19" fill="none" xmlns="http://www.w3.org/2000/svg">
<path d="M17.0557 0.261719H2.05566C1.65784 0.261719 1.27631 0.419754 0.995004 0.701059C0.713699 0.982363 0.555664 1.36389 0.555664 1.76172V16.7617C0.555664 17.1595 0.713699 17.5411 0.995004 17.8224C1.27631 18.1037 1.65784 18.2617 2.05566 18.2617H17.0557C17.4535 18.2617 17.835 18.1037 18.1163 17.8224C18.3976 17.5411 18.5557 17.1595 18.5557 16.7617V1.76172C18.5557 1.36389 18.3976 0.982363 18.1163 0.701059C17.835 0.419754 17.4535 0.261719 17.0557 0.261719ZM13.8363 7.54234L8.58629 12.7923C8.51663 12.8621 8.43392 12.9174 8.34287 12.9551C8.25182 12.9929 8.15423 13.0123 8.05566 13.0123C7.9571 13.0123 7.85951 12.9929 7.76846 12.9551C7.67741 12.9174 7.59469 12.8621 7.52504 12.7923L5.27504 10.5423C5.13431 10.4016 5.05525 10.2107 5.05525 10.0117C5.05525 9.8127 5.13431 9.62182 5.27504 9.48109C5.41577 9.34036 5.60664 9.2613 5.80566 9.2613C6.00469 9.2613 6.19556 9.34036 6.33629 9.48109L8.05566 11.2014L12.775 6.48109C12.8447 6.41141 12.9274 6.35614 13.0185 6.31842C13.1095 6.28071 13.2071 6.2613 13.3057 6.2613C13.4042 6.2613 13.5018 6.28071 13.5928 6.31842C13.6839 6.35614 13.7666 6.41141 13.8363 6.48109C13.906 6.55078 13.9612 6.6335 13.999 6.72455C14.0367 6.81559 14.0561 6.91317 14.0561 7.01172C14.0561 7.11026 14.0367 7.20785 13.999 7.29889C13.9612 7.38994 13.906 7.47266 13.8363 7.54234Z" fill="black"/>
</svg>
