<svg width="38" height="37" viewBox="0 0 38 37" fill="none" xmlns="http://www.w3.org/2000/svg">
<path d="M19 0.21875C15.3843 0.21875 11.8498 1.29093 8.84349 3.2997C5.83715 5.30847 3.494 8.16361 2.11034 11.5041C0.726671 14.8445 0.364641 18.5203 1.07003 22.0665C1.77541 25.6127 3.51653 28.8701 6.07321 31.4268C8.62989 33.9835 11.8873 35.7246 15.4335 36.43C18.9797 37.1354 22.6555 36.7733 25.9959 35.3897C29.3364 34.006 32.1915 31.6629 34.2003 28.6565C36.2091 25.6502 37.2813 22.1157 37.2813 18.5C37.272 13.6544 35.3429 9.00986 31.9165 5.58347C28.4902 2.15708 23.8456 0.228042 19 0.21875V0.21875ZM27.7012 15.3008L17.4004 25.1445C17.1341 25.395 16.7816 25.5335 16.416 25.5312C16.2373 25.5338 16.0599 25.501 15.8939 25.4346C15.728 25.3682 15.5769 25.2696 15.4492 25.1445L10.2988 20.2227C10.156 20.098 10.0398 19.9458 9.95729 19.7751C9.87477 19.6044 9.82761 19.4188 9.81865 19.2295C9.80969 19.0401 9.83911 18.8509 9.90515 18.6732C9.97119 18.4955 10.0725 18.3329 10.2029 18.1954C10.3334 18.0578 10.4903 17.9481 10.6642 17.8727C10.8382 17.7973 11.0256 17.7579 11.2152 17.7568C11.4047 17.7557 11.5926 17.7929 11.7674 17.8663C11.9422 17.9396 12.1004 18.0476 12.2324 18.1836L16.416 22.1738L25.7676 13.2617C26.041 13.0232 26.3961 12.8995 26.7585 12.9167C27.121 12.9338 27.4628 13.0904 27.7125 13.3537C27.9622 13.617 28.1004 13.9667 28.0983 14.3295C28.0962 14.6924 27.9539 15.0404 27.7012 15.3008Z" fill="#96C70A"/>
</svg>
