<svg width="18" height="18" viewBox="0 0 18 18" fill="none" xmlns="http://www.w3.org/2000/svg">
<path d="M13.2261 8.18745H2.8125C2.59701 8.18745 2.39035 8.27305 2.23798 8.42542C2.0856 8.5778 2 8.78446 2 8.99995C2 9.21544 2.0856 9.4221 2.23798 9.57447C2.39035 9.72684 2.59701 9.81245 2.8125 9.81245H13.2261L9.55027 13.4877L9.55025 13.4877C9.39782 13.6401 9.31219 13.8469 9.31219 14.0624C9.31219 14.278 9.39782 14.4848 9.55025 14.6372C9.70269 14.7896 9.90943 14.8753 10.125 14.8753C10.3406 14.8753 10.5473 14.7896 10.6997 14.6372L15.7621 9.57479C15.7622 9.57476 15.7622 9.57472 15.7622 9.57469C15.8377 9.49926 15.8976 9.40968 15.9385 9.31108C15.9794 9.21245 16.0004 9.10672 16.0004 8.99995C16.0004 8.89317 15.9794 8.78744 15.9385 8.68881C15.8976 8.59021 15.8377 8.50064 15.7622 8.4252C15.7622 8.42517 15.7622 8.42514 15.7621 8.4251L10.6997 3.3627C10.5473 3.21027 10.3406 3.12463 10.125 3.12463C9.90943 3.12463 9.70269 3.21027 9.55025 3.3627C9.39782 3.51513 9.31219 3.72187 9.31219 3.93745C9.31219 4.15302 9.39782 4.35976 9.55025 4.51219L9.55027 4.51221L13.2261 8.18745Z" fill="black" stroke="black" stroke-width="0.5"/>
</svg>
