<svg width="26" height="26" viewBox="0 0 26 26" fill="none" xmlns="http://www.w3.org/2000/svg">
<path d="M13 0.8125C10.5895 0.8125 8.23322 1.52728 6.22899 2.86646C4.22477 4.20564 2.66267 6.10907 1.74022 8.33605C0.817781 10.563 0.576427 13.0135 1.04668 15.3777C1.51694 17.7418 2.67769 19.9134 4.38214 21.6179C6.08659 23.3223 8.2582 24.4831 10.6223 24.9533C12.9865 25.4236 15.437 25.1822 17.664 24.2598C19.8909 23.3373 21.7944 21.7752 23.1335 19.771C24.4727 17.7668 25.1875 15.4105 25.1875 13C25.1841 9.76872 23.899 6.67077 21.6141 4.3859C19.3292 2.10104 16.2313 0.815912 13 0.8125ZM12.0625 7.375C12.0625 7.12636 12.1613 6.8879 12.3371 6.71209C12.5129 6.53627 12.7514 6.4375 13 6.4375C13.2486 6.4375 13.4871 6.53627 13.6629 6.71209C13.8387 6.8879 13.9375 7.12636 13.9375 7.375V13.9375C13.9375 14.1861 13.8387 14.4246 13.6629 14.6004C13.4871 14.7762 13.2486 14.875 13 14.875C12.7514 14.875 12.5129 14.7762 12.3371 14.6004C12.1613 14.4246 12.0625 14.1861 12.0625 13.9375V7.375ZM13 19.5625C12.7219 19.5625 12.45 19.48 12.2187 19.3255C11.9875 19.171 11.8072 18.9514 11.7008 18.6944C11.5944 18.4374 11.5665 18.1547 11.6208 17.8819C11.675 17.6091 11.809 17.3585 12.0056 17.1619C12.2023 16.9652 12.4529 16.8313 12.7257 16.777C12.9984 16.7228 13.2812 16.7506 13.5382 16.857C13.7951 16.9635 14.0147 17.1437 14.1693 17.375C14.3238 17.6062 14.4063 17.8781 14.4063 18.1562C14.4063 18.5292 14.2581 18.8869 13.9944 19.1506C13.7307 19.4143 13.373 19.5625 13 19.5625Z" fill="black"/>
</svg>
