<svg width="1541" height="867" viewBox="0 0 1541 867" fill="none" xmlns="http://www.w3.org/2000/svg">
<g clip-path="url(#clip0_475_154)">
<path d="M871.25 -155.937C683.065 -222.096 539.588 -53.3176 422.133 105.213C288.46 317.793 367.613 480.372 457.126 610.642C546.64 740.912 634.883 740.162 605.615 848.878C571.953 973.9 577.431 1097.54 657.848 1129.82C821.748 1195.62 912.942 1021.66 1131.53 1092.12C1350.13 1162.58 1522.71 941.248 1548.83 831.913C1574.95 722.582 1613.43 579.698 1522.63 429.553C1431.82 279.416 1346.86 335.785 1242.1 274.466C1137.34 213.15 1173.84 114.625 1151.34 56.2857C1128.85 -2.05341 1059.44 -89.7777 871.25 -155.937Z" fill="url(#paint0_linear_475_154)" fill-opacity="0.7"/>
<path d="M-145.069 845.711C-145.653 1032.61 50.6272 1123.38 229.583 1192.89C462.109 1264.39 583.28 1153.99 672.221 1041.77C761.162 929.551 732.923 849.407 839.627 850.394C962.337 851.533 1071.58 817.371 1075.43 736.557C1083.27 571.846 898.681 529.886 893.625 314.294C888.573 98.6993 636.034 -6.16231 529.757 -4.13895C423.484 -2.11905 283.239 -3.42791 176.867 114.655C70.5018 232.739 147.627 296.77 125.325 406.593C103.026 516.42 3.20759 506.443 -42.1178 540.687C-87.4431 574.931 -144.484 658.809 -145.069 845.711Z" fill="url(#paint1_linear_475_154)" fill-opacity="0.7"/>
<path d="M235.217 -237.476C48.4044 -241.815 -46.2697 -47.3548 -119.338 130.208C-195.488 361.3 -87.559 484.691 22.8241 575.887C133.208 667.084 213.886 640.455 210.756 747.14C207.153 869.829 239.105 979.76 319.809 985.233C484.294 996.385 529.944 812.634 745.547 811.908C961.153 811.186 1071.04 560.75 1071.16 454.431C1071.27 348.116 1075.4 207.896 959.5 99.1498C843.603 -9.58889 778.049 66.2515 668.72 41.7426C559.387 17.2377 571.365 -82.3822 538.046 -128.396C504.726 -174.41 422.029 -233.137 235.217 -237.476Z" fill="url(#paint2_linear_475_154)" fill-opacity="0.7"/>
</g>
<defs>
<linearGradient id="paint0_linear_475_154" x1="1121.82" y1="834.287" x2="659.178" y2="212.187" gradientUnits="userSpaceOnUse">
<stop offset="0.078125" stop-color="#4530B1"/>
<stop offset="0.885417" stop-color="#E01C86" stop-opacity="0.75"/>
</linearGradient>
<linearGradient id="paint1_linear_475_154" x1="586.845" y1="813.957" x2="261.777" y2="345.354" gradientUnits="userSpaceOnUse">
<stop stop-color="#E01C86" stop-opacity="0.75"/>
<stop offset="0.562748" stop-color="#4A30AF"/>
<stop offset="1" stop-color="#4A30AF"/>
</linearGradient>
<linearGradient id="paint2_linear_475_154" x1="252.16" y1="495.088" x2="559.143" y2="283.538" gradientUnits="userSpaceOnUse">
<stop stop-color="#E01C86" stop-opacity="0.85"/>
<stop offset="0.562748" stop-color="#4A30AF" stop-opacity="0"/>
<stop offset="1" stop-color="#4A30AF" stop-opacity="0"/>
</linearGradient>
<clipPath id="clip0_475_154">
<rect width="1541" height="867" fill="white"/>
</clipPath>
</defs>
</svg>
