<svg width="14" height="15" viewBox="0 0 14 15" fill="none" xmlns="http://www.w3.org/2000/svg">
<g id="CheckCircle">
<path id="Vector" d="M7 1.8125C5.87512 1.8125 4.7755 2.14607 3.8402 2.77102C2.90489 3.39597 2.17591 4.28423 1.74544 5.32349C1.31496 6.36274 1.20233 7.50631 1.42179 8.60958C1.64124 9.71284 2.18292 10.7263 2.97833 11.5217C3.77374 12.3171 4.78716 12.8588 5.89043 13.0782C6.99369 13.2977 8.13726 13.185 9.17651 12.7546C10.2158 12.3241 11.104 11.5951 11.729 10.6598C12.3539 9.7245 12.6875 8.62488 12.6875 7.5C12.6859 5.99207 12.0862 4.54636 11.0199 3.48009C9.95364 2.41382 8.50793 1.81409 7 1.8125ZM9.49703 6.49703L6.43453 9.55953C6.3939 9.60021 6.34565 9.63248 6.29254 9.65449C6.23943 9.67651 6.1825 9.68784 6.125 9.68784C6.06751 9.68784 6.01058 9.67651 5.95747 9.65449C5.90435 9.63248 5.8561 9.60021 5.81547 9.55953L4.50297 8.24703C4.42088 8.16494 4.37476 8.0536 4.37476 7.9375C4.37476 7.8214 4.42088 7.71006 4.50297 7.62797C4.58506 7.54588 4.69641 7.49976 4.8125 7.49976C4.9286 7.49976 5.03994 7.54588 5.12203 7.62797L6.125 8.63148L8.87797 5.87797C8.91862 5.83732 8.96688 5.80508 9.01998 5.78308C9.07309 5.76108 9.13002 5.74976 9.1875 5.74976C9.24499 5.74976 9.30191 5.76108 9.35502 5.78308C9.40813 5.80508 9.45639 5.83732 9.49703 5.87797C9.53768 5.91862 9.56993 5.96687 9.59192 6.01998C9.61392 6.07309 9.62525 6.13001 9.62525 6.1875C9.62525 6.24499 9.61392 6.30191 9.59192 6.35502C9.56993 6.40813 9.53768 6.45638 9.49703 6.49703Z" fill="#0DB78F"/>
</g>
</svg>
