<svg width="60" height="61" viewBox="0 0 60 61" fill="none" xmlns="http://www.w3.org/2000/svg">
<path d="M57.6563 30.5C57.6688 34.8633 56.253 39.1107 53.6251 42.5938C53.5143 42.7415 53.3754 42.866 53.2165 42.9601C53.0576 43.0542 52.8817 43.116 52.6989 43.1422C52.5161 43.1683 52.3299 43.1581 52.1511 43.1123C51.9722 43.0665 51.804 42.9858 51.6563 42.875C51.5086 42.7642 51.3841 42.6254 51.29 42.4665C51.1959 42.3076 51.1341 42.1317 51.1079 41.9489C51.0818 41.7661 51.092 41.5799 51.1378 41.401C51.1836 41.2221 51.2643 41.054 51.3751 40.9063C53.0239 38.7078 54.1268 36.1489 54.5927 33.4405C55.0587 30.7322 54.8743 27.9518 54.0549 25.3287C53.2355 22.7055 51.8045 20.3147 49.8798 18.3531C47.9551 16.3915 45.5918 14.9154 42.9846 14.0463C40.3775 13.1773 37.6012 12.9402 34.8845 13.3546C32.1678 13.7691 29.5884 14.8232 27.359 16.4301C25.1296 18.0369 23.3139 20.1506 22.0616 22.5968C20.8094 25.0431 20.1563 27.7519 20.1563 30.5C20.1563 30.873 20.0082 31.2307 19.7444 31.4944C19.4807 31.7581 19.123 31.9063 18.7501 31.9063C18.3771 31.9063 18.0194 31.7581 17.7557 31.4944C17.492 31.2307 17.3438 30.873 17.3438 30.5C17.3421 28.462 17.6511 26.4356 18.2602 24.4907C17.8005 24.4356 17.338 24.4074 16.8751 24.4063C13.7671 24.4063 10.7863 25.6409 8.58865 27.8386C6.39096 30.0363 5.15631 33.017 5.15631 36.125C5.15631 39.233 6.39096 42.2138 8.58865 44.4114C10.7863 46.6091 13.7671 47.8438 16.8751 47.8438H22.5001C22.873 47.8438 23.2307 47.9919 23.4944 48.2557C23.7582 48.5194 23.9063 48.8771 23.9063 49.25C23.9063 49.623 23.7582 49.9807 23.4944 50.2444C23.2307 50.5081 22.873 50.6563 22.5001 50.6563H16.8751C14.8638 50.6556 12.8746 50.2374 11.0334 49.4282C9.19209 48.619 7.53886 47.4363 6.1783 45.9551C4.81774 44.4739 3.77947 42.7264 3.12921 40.8232C2.47894 38.92 2.23085 36.9025 2.40062 34.8984C2.57039 32.8944 3.15434 30.9474 4.11549 29.1807C5.07665 27.4139 6.39409 25.866 7.98444 24.6348C9.57478 23.4036 11.4034 22.5159 13.3545 22.0279C15.3057 21.54 17.3369 21.4624 19.3196 21.8C21.2928 17.678 24.6083 14.3489 28.7222 12.3587C32.8361 10.3685 37.5041 9.83536 41.9608 10.8467C46.4175 11.8581 50.3982 14.354 53.2501 17.925C56.1019 21.4959 57.6556 25.93 57.6563 30.5ZM36.6188 29.5063C36.3551 29.2429 35.9977 29.095 35.6251 29.095C35.2524 29.095 34.895 29.2429 34.6313 29.5063L27.1313 37.0063C26.8829 37.2729 26.7477 37.6255 26.7541 37.9898C26.7605 38.3541 26.9081 38.7017 27.1658 38.9593C27.4234 39.217 27.771 39.3646 28.1353 39.371C28.4996 39.3774 28.8522 39.2422 29.1188 38.9938L34.2188 33.8961V49.25C34.2188 49.623 34.367 49.9807 34.6307 50.2444C34.8944 50.5081 35.2521 50.6563 35.6251 50.6563C35.998 50.6563 36.3557 50.5081 36.6194 50.2444C36.8832 49.9807 37.0313 49.623 37.0313 49.25V33.8961L42.1313 38.9938C42.3979 39.2422 42.7505 39.3774 43.1148 39.371C43.4791 39.3646 43.8267 39.217 44.0844 38.9593C44.342 38.7017 44.4896 38.3541 44.496 37.9898C44.5024 37.6255 44.3672 37.2729 44.1188 37.0063L36.6188 29.5063Z" fill="#444444"/>
</svg>
