<svg width="42" height="44" viewBox="0 0 42 44" fill="none" xmlns="http://www.w3.org/2000/svg">
<path d="M5.1029 42.3589H5.60911L5.41354 41.7816L5.36321 41.5684H5.34557L5.30134 41.7787L5.1029 42.3589ZM5.72454 42.6965H4.98747L4.83041 43.1553H4.38062L5.15037 41.0831H5.56165L6.33165 43.1553H5.8816L5.72454 42.6965Z" fill="white"/>
<path d="M7.99941 42.8359C8.15622 42.8359 8.2924 42.8211 8.41678 42.7677L8.49978 43.1023C8.33663 43.1674 8.18281 43.1851 7.99941 43.1851C7.38671 43.1851 6.92163 42.7263 6.92163 42.1195C6.92163 41.5126 7.38671 41.0539 7.99941 41.0539C8.18281 41.0539 8.33663 41.0715 8.49978 41.1395L8.41678 41.4712C8.30134 41.4296 8.15907 41.403 7.99941 41.403C7.63236 41.403 7.34807 41.7228 7.34807 42.1195C7.34807 42.5368 7.63236 42.8359 7.99941 42.8359Z" fill="white"/>
<path d="M9.71117 42.6346V42.0957C9.61947 42.0336 9.49223 41.9951 9.34126 41.9951C9.13699 41.9951 8.97124 42.1698 8.97124 42.4153C8.97124 42.6583 9.13699 42.8359 9.34126 42.8359C9.49223 42.8359 9.63425 42.7825 9.71117 42.6346ZM9.69638 41.7761L9.71117 41.7672V41.6755H10.1375V43.1556H9.71117V43.0136L9.69352 43.0075C9.60182 43.111 9.448 43.1851 9.25814 43.1851C8.85879 43.1851 8.54492 42.8446 8.54492 42.4153C8.54492 41.9861 8.87059 41.6457 9.28796 41.6457C9.47459 41.6457 9.60182 41.6992 9.69638 41.7761Z" fill="white"/>
<path d="M10.8934 42.1545V42.7671C10.9851 42.8117 11.1066 42.8354 11.2517 42.8354C11.456 42.8354 11.6217 42.6607 11.6217 42.4148C11.6217 42.1722 11.456 41.9946 11.2517 41.9946C11.1066 41.9946 10.9735 42.0391 10.8934 42.1545ZM10.8934 43.0572V43.8359H10.4673V41.6749H10.8934V41.8051L10.911 41.8112C11.0001 41.7134 11.1482 41.6452 11.3345 41.6452C11.7342 41.6452 12.0478 41.9857 12.0478 42.4148C12.0478 42.8441 11.7224 43.1846 11.305 43.1846C11.1216 43.1846 10.9972 43.1374 10.8934 43.0572Z" fill="white"/>
<path d="M12.2947 41.6752H12.7207V43.1553H12.2947V41.6752ZM12.5046 41.0622C12.6736 41.0622 12.7445 41.16 12.7445 41.2549C12.7445 41.3437 12.6736 41.4444 12.5046 41.4444C12.345 41.4444 12.2681 41.3437 12.2681 41.2549C12.2681 41.16 12.345 41.0622 12.5046 41.0622Z" fill="white"/>
<path d="M12.905 41.675H13.1211V41.2012H13.5474V41.675H13.9142V42.0007H13.5474V42.5957C13.5474 42.7378 13.6273 42.797 13.7427 42.797C13.8107 42.797 13.8789 42.7851 13.9293 42.7672L13.9883 43.1077C13.9055 43.1462 13.7811 43.1699 13.6718 43.1699C13.3548 43.1699 13.1211 42.9715 13.1211 42.6195V42.0007H12.905V41.675Z" fill="white"/>
<path d="M15.2085 42.6346V42.0957C15.1165 42.0336 14.9892 41.9951 14.8382 41.9951C14.6341 41.9951 14.4681 42.1698 14.4681 42.4153C14.4681 42.6583 14.6341 42.8359 14.8382 42.8359C14.9892 42.8359 15.1316 42.7825 15.2085 42.6346ZM15.1935 41.7761L15.2085 41.7672V41.6755H15.6346V43.1556H15.2085V43.0136L15.1906 43.0075C15.0985 43.111 14.9447 43.1851 14.7556 43.1851C14.3557 43.1851 14.042 42.8446 14.042 42.4153C14.042 41.9861 14.3677 41.6457 14.785 41.6457C14.9713 41.6457 15.0985 41.6992 15.1935 41.7761Z" fill="white"/>
<path d="M16.5741 43.1816C16.1541 43.1816 15.9644 43.0011 15.9644 42.6488V40.994H16.3907V42.6014C16.3907 42.7377 16.4676 42.7998 16.6039 42.8088L16.5741 43.1816Z" fill="white"/>
<path d="M17.3564 41.0831H17.7828V43.1553H17.3564V41.0831Z" fill="white"/>
<path d="M18.1118 41.6752H18.5381V41.8438L18.5561 41.8499C18.6568 41.7313 18.8283 41.6453 19.0504 41.6453C19.3434 41.6453 19.5861 41.8557 19.5861 42.2672V43.1553H19.16V42.291C19.16 42.0836 19.0296 41.9947 18.8725 41.9947C18.7395 41.9947 18.618 42.0361 18.5381 42.125V43.1553H18.1118V41.6752Z" fill="white"/>
<path d="M20.9576 42.676V42.075C20.8687 42.0247 20.7473 41.9951 20.6114 41.9951C20.4071 41.9951 20.2411 42.1698 20.2411 42.4154C20.2411 42.6583 20.4071 42.8359 20.6114 42.8359C20.7473 42.8359 20.8774 42.7914 20.9576 42.676ZM20.9576 41.7672V40.9946H21.3836V43.1556H20.9576V43.0402L20.9399 43.0341C20.8508 43.1229 20.706 43.1851 20.5283 43.1851C20.1289 43.1851 19.8147 42.8446 19.8147 42.4154C19.8147 41.9861 20.1405 41.6457 20.5581 41.6457C20.7326 41.6457 20.8537 41.6903 20.9576 41.7672Z" fill="white"/>
<path d="M21.654 41.6752H22.0801V43.1553H21.654V41.6752ZM21.8643 41.0622C22.033 41.0622 22.1038 41.16 22.1038 41.2549C22.1038 41.3437 22.033 41.4444 21.8643 41.4444C21.7044 41.4444 21.6274 41.3437 21.6274 41.2549C21.6274 41.16 21.7044 41.0622 21.8643 41.0622Z" fill="white"/>
<path d="M23.49 42.6346V42.0957C23.398 42.0336 23.2707 41.9951 23.1197 41.9951C22.9156 41.9951 22.75 42.1698 22.75 42.4153C22.75 42.6583 22.9156 42.8359 23.1197 42.8359C23.2707 42.8359 23.4131 42.7825 23.49 42.6346ZM23.4749 41.7761L23.49 41.7672V41.6755H23.9163V43.1556H23.49V43.0136L23.4721 43.0075C23.3804 43.111 23.2264 43.1851 23.0369 43.1851C22.6372 43.1851 22.3237 42.8446 22.3237 42.4153C22.3237 41.9861 22.6494 41.6457 23.0665 41.6457C23.253 41.6457 23.3804 41.6992 23.4749 41.7761Z" fill="white"/>
<path d="M25.7705 42.8359C25.9276 42.8359 26.0639 42.8211 26.1883 42.7677L26.2709 43.1023C26.1081 43.1674 25.9542 43.1851 25.7705 43.1851C25.1579 43.1851 24.6931 42.7263 24.6931 42.1195C24.6931 41.5126 25.1579 41.0539 25.7705 41.0539C25.9542 41.0539 26.1081 41.0715 26.2709 41.1395L26.1883 41.4712C26.0725 41.4296 25.9304 41.403 25.7705 41.403C25.4037 41.403 25.1194 41.7228 25.1194 42.1195C25.1194 42.5368 25.4037 42.8359 25.7705 42.8359Z" fill="white"/>
<path d="M27.1365 42.8359C27.3644 42.8359 27.5299 42.6612 27.5299 42.4153C27.5299 42.1726 27.3644 41.9951 27.1365 41.9951C26.9054 41.9951 26.7425 42.1726 26.7425 42.4153C26.7425 42.6612 26.9054 42.8359 27.1365 42.8359ZM27.1365 41.6457C27.6068 41.6457 27.9562 41.9861 27.9562 42.4153C27.9562 42.8446 27.6068 43.1851 27.1365 43.1851C26.6627 43.1851 26.3162 42.8446 26.3162 42.4153C26.3162 41.9861 26.6627 41.6457 27.1365 41.6457Z" fill="white"/>
<path d="M30.6038 43.1553H30.1774V42.291C30.1774 42.0836 30.0649 41.9947 29.92 41.9947C29.7895 41.9947 29.6654 42.0304 29.5882 42.125C29.5943 42.1576 29.5972 42.1962 29.5972 42.2317V43.1553H29.1709V42.2792C29.1709 42.0807 29.0583 41.9947 28.9134 41.9947C28.7801 41.9947 28.656 42.0599 28.5848 42.1548V43.1553H28.1584V41.6752H28.5848V41.8024L28.6024 41.8082C28.6941 41.7137 28.8394 41.6453 29.0198 41.6453C29.2125 41.6453 29.384 41.7194 29.4907 41.8675C29.6179 41.7283 29.7985 41.6453 30.0265 41.6453C30.3521 41.6453 30.6038 41.8618 30.6038 42.291V43.1553Z" fill="white"/>
<path d="M31.3099 42.1545V42.7671C31.4018 42.8117 31.5231 42.8354 31.668 42.8354C31.8721 42.8354 32.0382 42.6607 32.0382 42.4148C32.0382 42.1722 31.8721 41.9946 31.668 41.9946C31.5231 41.9946 31.3896 42.0391 31.3099 42.1545ZM31.3099 43.0572V43.8359H30.8835V41.6749H31.3099V41.8051L31.3278 41.8112C31.4163 41.7134 31.5645 41.6452 31.751 41.6452C32.1507 41.6452 32.4645 41.9857 32.4645 42.4148C32.4645 42.8441 32.1389 43.1846 31.7215 43.1846C31.5377 43.1846 31.4134 43.1374 31.3099 43.0572Z" fill="white"/>
<path d="M33.7322 42.6346V42.0957C33.6402 42.0336 33.5129 41.9951 33.3619 41.9951C33.1577 41.9951 32.9917 42.1698 32.9917 42.4153C32.9917 42.6583 33.1577 42.8359 33.3619 42.8359C33.5129 42.8359 33.6553 42.7825 33.7322 42.6346ZM33.7171 41.7761L33.7322 41.7672V41.6755H34.1582V43.1556H33.7322V43.0136L33.7143 43.0075C33.6222 43.111 33.4684 43.1851 33.2791 43.1851C32.8794 43.1851 32.5657 42.8446 32.5657 42.4153C32.5657 41.9861 32.8913 41.6457 33.3087 41.6457C33.495 41.6457 33.6222 41.6992 33.7171 41.7761Z" fill="white"/>
<path d="M34.4878 41.6752H34.9141V41.8438L34.9321 41.8499C35.0328 41.7313 35.2042 41.6453 35.4264 41.6453C35.7194 41.6453 35.9621 41.8557 35.9621 42.2672V43.1553H35.536V42.291C35.536 42.0836 35.4055 41.9947 35.2485 41.9947C35.1155 41.9947 34.994 42.0361 34.9141 42.125V43.1553H34.4878V41.6752Z" fill="white"/>
<path d="M36.8127 42.5545L36.8365 42.685L36.8541 42.6878L37.168 41.6755H37.6385L36.9782 43.3716C36.863 43.6826 36.6794 43.8926 36.2117 43.8926L36.1908 43.5463C36.4072 43.5463 36.5018 43.4752 36.5758 43.3184L36.6291 43.1526L36.0427 41.6755H36.5108L36.8127 42.5545Z" fill="white"/>
<path d="M29.8421 0.286375C29.8378 0.44306 29.4718 0.640125 29.3119 0.709459C27.2761 1.59315 25.2545 2.51362 23.1903 3.3255C21.7126 3.90651 20.1463 3.80698 18.6882 3.27816C12.9972 1.21443 7.69618 3.49933 4.90246 7.33641C2.14651 11.1217 1.61433 15.2862 3.68353 19.5286C5.89736 24.0673 9.6748 26.3656 14.7461 26.3645C15.8712 26.3643 16.9962 26.047 18.3806 25.8363C17.4346 24.8072 16.7062 24.0151 15.9779 23.2229C15.9108 23.1499 15.7837 23.0948 15.7411 23.0023C15.641 22.785 16.5606 23.0079 16.6489 23.0302C17.1626 23.1589 17.6354 23.3953 18.1426 23.5347C18.6081 23.6735 19.073 23.8015 19.5511 23.8905C20.6305 24.0917 21.738 24.1363 22.83 24.0231C22.9621 24.0094 23.094 23.9935 23.2255 23.9752C25.205 23.7006 27.0901 22.9581 28.8531 22.0379C30.2074 21.3311 31.6142 20.7066 33.0427 20.1649C35.2615 19.3235 37.474 19.627 39.6494 20.4294C40.3124 20.6739 40.4732 21.0146 40.0817 21.6732C39.3931 22.8316 39.4187 22.8859 38.1237 22.6091C35.6281 22.0755 33.3143 22.655 31.0478 23.6506C28.9349 24.5786 26.8831 25.7862 24.6715 26.3122C22.2162 26.8961 19.9522 28.0131 17.5042 28.5232C12.9327 29.4756 8.79607 28.4689 5.16165 25.5161C-0.699148 20.7544 -1.87757 11.4998 3.2269 5.35804C6.78813 1.07302 11.4488 -0.658575 16.9996 0.305386C18.015 0.481703 19.0193 0.793827 19.9852 1.15851C20.6664 1.41559 21.2652 1.42243 21.8989 1.11155C23.8198 0.169081 25.9642 -0.0466251 28.0774 0.00754929C28.5918 0.0207195 29.1239 0.00183487 29.6266 0.125839C29.7849 0.16498 29.8438 0.22226 29.8421 0.286375Z" fill="white"/>
<path d="M13.3898 12.7051C14.7591 13.1827 16.1355 13.6698 17.5166 14.1431C20.7185 15.2406 23.807 14.9459 26.8474 13.4855C28.8217 12.5372 30.8458 11.6876 32.8732 10.8564C34.3096 10.2677 35.8365 10.2918 37.3104 10.6509C38.6806 10.9848 40.0116 11.4889 41.3445 11.9614C41.8965 12.1572 42.2437 13.9361 41.7931 14.3282C41.6351 14.4659 41.2253 14.3707 40.9481 14.306C39.2662 13.9134 37.6086 13.3246 35.906 13.1366C33.8479 12.9093 31.9454 13.7609 30.0895 14.5905C28.2989 15.3911 26.5196 16.2192 24.7109 16.9769C22.3222 17.9774 19.9483 17.5715 17.603 16.7662C16.5374 16.4003 15.4864 15.9921 14.424 15.6166C13.0294 15.1238 12.6617 14.1531 13.3898 12.7051Z" fill="white"/>
<path d="M13.47 17.4426C13.4825 17.5318 13.8753 17.4821 13.9347 17.4872C14.1832 17.5084 14.4493 17.6137 14.6879 17.6839C15.1901 17.8315 15.6844 18.005 16.1761 18.1841C17.2188 18.564 18.2578 18.9775 19.341 19.2301C20.3314 19.461 21.3503 19.5386 22.3646 19.4574C23.7059 19.35 24.9792 18.9648 26.2182 18.456C27.6226 17.8522 29.0315 17.2439 30.3792 16.5266C33.1493 15.0518 36.0021 14.6865 39.0026 15.6571C39.6899 15.8793 40.3668 16.1328 41.0549 16.3521C41.3643 16.4507 41.6684 16.6375 41.7311 16.98C41.7863 17.2806 41.7137 17.5908 41.6209 17.8764C41.5439 18.1136 41.4635 18.4548 41.3028 18.6501C41.0647 18.9397 40.529 18.7458 40.2385 18.6638C38.9119 18.2895 37.5577 17.9339 36.1921 17.7951C33.7954 17.5514 31.6902 18.6158 29.5782 19.5592C27.9457 20.2886 26.3483 21.116 24.6703 21.7194C22.1485 22.6262 19.6597 22.1385 17.2324 21.2025C16.8281 21.0466 16.4291 20.873 16.0168 20.7421C13.9697 20.0927 13.7525 19.828 13.47 17.4426Z" fill="white"/>
<path d="M40.9325 9.65135C39.8136 9.35165 38.6937 9.05518 37.5751 8.75411C36.5149 8.4687 35.4601 8.3688 34.3647 8.50424C33.4197 8.62104 32.4986 8.89017 31.6198 9.25237C29.6208 10.0762 27.6583 10.9908 25.6954 11.8991C23.7729 12.7886 21.5581 13.1554 19.4686 12.7228C18.5305 12.5284 17.6176 12.18 16.7148 11.8629C15.9572 11.5968 15.1996 11.3306 14.4421 11.0646C14.2255 10.9886 13.9509 10.9515 13.8137 10.755C13.6696 10.5485 13.7451 10.3692 13.7451 10.1362C13.813 9.91539 13.8566 9.68701 13.93 9.46833C14.2303 8.57469 14.4432 8.54027 15.3404 8.81202C16.9488 9.29909 18.5736 9.74554 20.2133 10.1113C21.9467 10.4981 23.6152 10.0104 25.1944 9.37029C27.546 8.41677 29.8034 7.22331 32.1759 6.33104C34.5348 5.44387 36.9488 5.69685 39.2676 6.65435C40.2042 7.04115 40.956 8.37439 40.9325 9.65135Z" fill="white"/>
<path d="M37.2508 3.94344C37.1175 3.99476 36.8855 3.94332 36.7364 3.93587C36.5379 3.92592 36.3394 3.91561 36.1409 3.9048C35.2522 3.85672 34.406 3.83249 33.5232 3.9806C32.6459 4.12784 31.8439 4.42443 31.016 4.73494C29.0316 5.59937 27.0788 6.53625 25.0989 7.41174C24.1225 7.84352 23.075 8.10793 22.0111 8.19541C20.3649 8.33072 18.7349 8.02965 17.1581 7.577C16.6968 7.44454 16.2058 7.3352 15.8246 7.02755C15.5395 6.7973 15.434 6.48133 15.6257 6.15081C16.3148 4.96208 16.8439 4.67592 18.1 5.1246C20.638 6.03103 23.0638 5.59142 25.4334 4.58198C27.3991 3.74451 29.3582 2.87909 31.2617 1.91078C31.9893 1.54063 32.8025 1.31622 33.6215 1.43936C34.4029 1.5569 35.1001 1.96669 35.7103 2.45128C35.9771 2.66313 36.2306 2.89126 36.4758 3.12747C36.6118 3.25843 36.7451 3.39201 36.8767 3.52732C36.9918 3.64573 37.1893 3.79359 37.2508 3.94344Z" fill="white"/>
<path d="M24.8257 28.4651C27.8915 27.1654 30.7875 25.8901 33.7239 24.7156C34.9565 24.2227 36.2814 24.1878 37.6385 24.4997C35.6729 27.5667 28.9056 29.7964 24.8257 28.4651Z" fill="white"/>
<path d="M3.47033 31.9618C4.36682 31.9618 5.03046 32.2397 5.64018 32.7956C5.72082 32.8674 5.72082 32.9749 5.64912 33.0467L4.94982 33.773C4.88707 33.8356 4.78842 33.8356 4.72567 33.773C4.39379 33.477 3.95443 33.3156 3.51519 33.3156C2.5019 33.3156 1.75774 34.1586 1.75774 35.1628C1.75774 36.1579 2.51085 36.983 3.52414 36.983C3.94548 36.983 4.40273 36.8305 4.72567 36.5526C4.78842 36.4988 4.90497 36.4988 4.95877 36.5615L5.65807 37.3057C5.72082 37.3684 5.71187 37.485 5.64912 37.5477C5.03941 38.1396 4.26841 38.4175 3.47033 38.4175C1.6771 38.4175 0.233398 36.9919 0.233398 35.1987C0.233398 33.4053 1.6771 31.9618 3.47033 31.9618Z" fill="white"/>
<path d="M9.45821 34.7326C9.82576 34.7326 10.1396 34.3919 10.1396 34.0153C10.1396 33.6387 9.82576 33.3339 9.45821 33.3339H8.13118V34.7326H9.45821ZM6.72339 32.2219C6.72339 32.1323 6.79533 32.0516 6.89374 32.0516H9.57476C10.6508 32.0516 11.5294 32.9213 11.5294 33.9884C11.5294 34.8134 10.9826 35.4767 10.2024 35.7906L11.4307 38.0679C11.4937 38.1847 11.4307 38.3281 11.2784 38.3281H10.0858C10.0142 38.3281 9.96045 38.2831 9.94255 38.2475L8.74997 35.8713H8.13118V38.1576C8.13118 38.2475 8.05067 38.3281 7.96083 38.3281H6.89374C6.79533 38.3281 6.72339 38.2475 6.72339 38.1576V32.2219Z" fill="white"/>
<path d="M12.73 32.222C12.73 32.1325 12.8019 32.0517 12.9003 32.0517H16.6125C16.7112 32.0517 16.7829 32.1325 16.7829 32.222V33.1994C16.7829 33.289 16.7112 33.3698 16.6125 33.3698H14.1288V34.4816H16.1731C16.2628 34.4816 16.3434 34.5624 16.3434 34.652V35.6293C16.3434 35.7279 16.2628 35.7997 16.1731 35.7997H14.1288V37.01H16.6125C16.7112 37.01 16.7829 37.0907 16.7829 37.1805V38.1578C16.7829 38.2476 16.7112 38.3281 16.6125 38.3281H12.9003C12.8019 38.3281 12.73 38.2476 12.73 38.1578V32.222Z" fill="white"/>
<path d="M20.2433 37.0011C21.2564 37.0011 21.9917 36.203 21.9917 35.1809C21.9917 34.1677 21.2564 33.3697 20.2433 33.3697H19.3826V37.0011H20.2433ZM17.9836 32.2219C17.9836 32.1323 18.0556 32.0516 18.145 32.0516H20.3329C22.0635 32.0516 23.4801 33.4594 23.4801 35.1809C23.4801 36.9202 22.0635 38.3281 20.3329 38.3281H18.145C18.0556 38.3281 17.9836 38.2475 17.9836 38.1578V32.2219Z" fill="white"/>
<path d="M24.5723 32.222C24.5723 32.1325 24.6442 32.0517 24.7426 32.0517H28.4548C28.5535 32.0517 28.6252 32.1325 28.6252 32.222V33.1994C28.6252 33.289 28.5535 33.3698 28.4548 33.3698H25.9711V34.4816H28.0153C28.105 34.4816 28.1857 34.5624 28.1857 34.652V35.6293C28.1857 35.7279 28.105 35.7997 28.0153 35.7997H25.9711V37.01H28.4548C28.5535 37.01 28.6252 37.0907 28.6252 37.1805V38.1578C28.6252 38.2476 28.5535 38.3281 28.4548 38.3281H24.7426C24.6442 38.3281 24.5723 38.2476 24.5723 38.1578V32.222Z" fill="white"/>
<path d="M29.8167 32.1232C29.8167 32.0336 29.8975 31.9618 29.987 31.9618H30.2112L33.7887 35.4048H33.7979V32.2217C33.7979 32.1321 33.8696 32.0513 33.9682 32.0513H35.044C35.1337 32.0513 35.2144 32.1321 35.2144 32.2217V38.2562C35.2144 38.3455 35.1337 38.4175 35.044 38.4175H34.9006C34.8737 38.4175 34.802 38.3905 34.7841 38.3726L31.2423 34.8131H31.2334V38.1574C31.2334 38.2473 31.1617 38.3279 31.063 38.3279H29.9959C29.9064 38.3279 29.8256 38.2473 29.8256 38.1574L29.8167 32.1232Z" fill="white"/>
<path d="M39.5353 31.9618C40.432 31.9618 41.0954 32.2397 41.7052 32.7956C41.7858 32.8674 41.7858 32.9749 41.7141 33.0467L41.0148 33.773C40.952 33.8356 40.8534 33.8356 40.7906 33.773C40.4587 33.477 40.0194 33.3156 39.5801 33.3156C38.5668 33.3156 37.8227 34.1586 37.8227 35.1628C37.8227 36.1579 38.5758 36.983 39.5891 36.983C40.0104 36.983 40.4677 36.8305 40.7906 36.5526C40.8534 36.4988 40.9699 36.4988 41.0237 36.5615L41.723 37.3057C41.7858 37.3684 41.7768 37.485 41.7141 37.5477C41.1044 38.1396 40.3334 38.4175 39.5353 38.4175C37.742 38.4175 36.2983 36.9919 36.2983 35.1987C36.2983 33.4053 37.742 31.9618 39.5353 31.9618Z" fill="white"/>
</svg>
