<svg width="38" height="37" viewBox="0 0 38 37" fill="none" xmlns="http://www.w3.org/2000/svg">
<path d="M19 0.21875C15.3843 0.21875 11.8498 1.29093 8.84349 3.2997C5.83715 5.30847 3.494 8.16361 2.11034 11.5041C0.726671 14.8445 0.364641 18.5203 1.07003 22.0665C1.77541 25.6127 3.51653 28.8701 6.07321 31.4268C8.62989 33.9835 11.8873 35.7246 15.4335 36.43C18.9797 37.1354 22.6555 36.7733 25.9959 35.3897C29.3364 34.006 32.1915 31.6629 34.2003 28.6565C36.2091 25.6502 37.2813 22.1157 37.2813 18.5C37.2761 13.6531 35.3484 9.00615 31.9212 5.57886C28.4939 2.15157 23.8469 0.223868 19 0.21875ZM25.6199 23.1301C25.7506 23.2607 25.8542 23.4158 25.9249 23.5866C25.9956 23.7573 26.032 23.9402 26.032 24.125C26.032 24.3098 25.9956 24.4927 25.9249 24.6634C25.8542 24.8342 25.7506 24.9893 25.6199 25.1199C25.4893 25.2506 25.3342 25.3542 25.1635 25.4249C24.9927 25.4956 24.8098 25.532 24.625 25.532C24.4402 25.532 24.2573 25.4956 24.0866 25.4249C23.9159 25.3542 23.7607 25.2506 23.6301 25.1199L19 20.4881L14.3699 25.1199C14.2393 25.2506 14.0842 25.3542 13.9135 25.4249C13.7427 25.4956 13.5598 25.532 13.375 25.532C13.1902 25.532 13.0073 25.4956 12.8366 25.4249C12.6659 25.3542 12.5107 25.2506 12.3801 25.1199C12.2494 24.9893 12.1458 24.8342 12.0751 24.6634C12.0044 24.4927 11.968 24.3098 11.968 24.125C11.968 23.9402 12.0044 23.7573 12.0751 23.5866C12.1458 23.4158 12.2494 23.2607 12.3801 23.1301L17.0119 18.5L12.3801 13.8699C12.1162 13.6061 11.968 13.2482 11.968 12.875C11.968 12.5018 12.1162 12.1439 12.3801 11.8801C12.644 11.6162 13.0018 11.468 13.375 11.468C13.7482 11.468 14.1061 11.6162 14.3699 11.8801L19 16.5119L23.6301 11.8801C23.7607 11.7494 23.9159 11.6458 24.0866 11.5751C24.2573 11.5044 24.4402 11.468 24.625 11.468C24.8098 11.468 24.9927 11.5044 25.1635 11.5751C25.3342 11.6458 25.4893 11.7494 25.6199 11.8801C25.7506 12.0107 25.8542 12.1658 25.9249 12.3366C25.9956 12.5073 26.032 12.6902 26.032 12.875C26.032 13.0598 25.9956 13.2427 25.9249 13.4134C25.8542 13.5842 25.7506 13.7393 25.6199 13.8699L20.9881 18.5L25.6199 23.1301Z" fill="#E35151"/>
</svg>
