<svg width="10" height="10" viewBox="0 0 10 10" fill="none" xmlns="http://www.w3.org/2000/svg">
<g clip-path="url(#clip0_165_288)">
<path d="M7.68547 2.92309V2.92292V1.58669C7.68547 1.40107 7.61173 1.22306 7.48048 1.09181C7.34923 0.960553 7.17121 0.886816 6.98559 0.886816H2.78645C2.60083 0.886816 2.42282 0.960553 2.29157 1.09181C2.16031 1.22306 2.08658 1.40107 2.08658 1.58669L2.08658 2.93642L2.08658 2.93663C2.08681 3.04518 2.1122 3.15219 2.16074 3.24927C2.20928 3.34636 2.27966 3.43087 2.36635 3.49619L2.36653 3.49632L4.21958 4.88602L2.36653 6.27571L2.36635 6.27585C2.27966 6.34116 2.20928 6.42568 2.16074 6.52276C2.1122 6.61984 2.08681 6.72686 2.08658 6.8354V6.83562V8.18534C2.08658 8.37096 2.16031 8.54897 2.29157 8.68023C2.42282 8.81148 2.60083 8.88522 2.78645 8.88522H6.98559C7.17121 8.88522 7.34923 8.81148 7.48048 8.68023C7.61173 8.54897 7.68547 8.37096 7.68547 8.18534L7.68547 6.84911L7.68547 6.84888C7.68522 6.74078 7.66005 6.63418 7.61192 6.53738C7.56378 6.44058 7.49398 6.35618 7.40793 6.29074L7.40769 6.29056L5.54938 4.88601L7.4077 3.48109L7.40783 3.48099C7.49395 3.41566 7.56381 3.33132 7.61197 3.23455C7.66013 3.13778 7.68529 3.03118 7.68547 2.92309ZM2.88645 8.08534V6.88562L4.88577 5.38613L6.88559 6.89849V8.08534H2.88645ZM6.88559 2.87318L4.88577 4.3859L2.88645 2.88642V1.68669H6.88559V2.87318Z" fill="white" stroke="white" stroke-width="0.2"/>
</g>
<defs>
<clipPath id="clip0_165_288">
<rect width="9.59803" height="9.59803" fill="white" transform="translate(0.0870094 0.0869141)"/>
</clipPath>
</defs>
</svg>
