<svg width="1143" height="53" viewBox="0 0 1143 53" fill="none" xmlns="http://www.w3.org/2000/svg">
<line x1="36.5" y1="15" x2="551.5" y2="15" stroke="#96C70A" stroke-width="2"/>
<line x1="578.5" y1="15" x2="1098.5" y2="15" stroke="#404040" stroke-width="2"/>
<path d="M23 0C20.0333 0 17.1332 0.879735 14.6665 2.52796C12.1997 4.17618 10.2771 6.51886 9.14181 9.25975C8.0065 12.0006 7.70945 15.0166 8.28823 17.9264C8.86701 20.8361 10.2956 23.5088 12.3934 25.6066C14.4912 27.7044 17.1639 29.133 20.0736 29.7118C22.9834 30.2906 25.9994 29.9935 28.7403 28.8582C31.4811 27.7229 33.8238 25.8003 35.472 23.3335C37.1203 20.8668 38 17.9667 38 15C37.9958 11.023 36.4141 7.21017 33.602 4.39804C30.7898 1.5859 26.977 0.00419974 23 0ZM29.5856 12.3548L21.5087 20.4317C21.4015 20.539 21.2742 20.6241 21.1342 20.6822C20.9941 20.7402 20.8439 20.7701 20.6923 20.7701C20.5407 20.7701 20.3905 20.7402 20.2505 20.6822C20.1104 20.6241 19.9831 20.539 19.876 20.4317L16.4144 16.9702C16.1979 16.7537 16.0763 16.46 16.0763 16.1538C16.0763 15.8477 16.1979 15.554 16.4144 15.3375C16.6309 15.121 16.9246 14.9994 17.2308 14.9994C17.537 14.9994 17.8306 15.121 18.0471 15.3375L20.6923 17.9841L27.9529 10.7221C28.0601 10.6149 28.1874 10.5299 28.3274 10.4719C28.4675 10.4138 28.6176 10.384 28.7692 10.384C28.9208 10.384 29.071 10.4138 29.211 10.4719C29.3511 10.5299 29.4784 10.6149 29.5856 10.7221C29.6928 10.8293 29.7778 10.9566 29.8358 11.0967C29.8939 11.2367 29.9237 11.3868 29.9237 11.5385C29.9237 11.6901 29.8939 11.8402 29.8358 11.9803C29.7778 12.1203 29.6928 12.2476 29.5856 12.3548Z" fill="#96C70A"/>
<path d="M5.98714 46.14H2.33914L1.66714 48H0.515141L3.53914 39.684H4.79914L7.81114 48H6.65914L5.98714 46.14ZM5.67514 45.252L4.16314 41.028L2.65114 45.252H5.67514ZM10.2211 42.636C10.4371 42.26 10.7571 41.948 11.1811 41.7C11.6131 41.444 12.1131 41.316 12.6811 41.316C13.2651 41.316 13.7931 41.456 14.2651 41.736C14.7451 42.016 15.1211 42.412 15.3931 42.924C15.6651 43.428 15.8011 44.016 15.8011 44.688C15.8011 45.352 15.6651 45.944 15.3931 46.464C15.1211 46.984 14.7451 47.388 14.2651 47.676C13.7931 47.964 13.2651 48.108 12.6811 48.108C12.1211 48.108 11.6251 47.984 11.1931 47.736C10.7691 47.48 10.4451 47.164 10.2211 46.788V51.12H9.12908V41.424H10.2211V42.636ZM14.6851 44.688C14.6851 44.192 14.5851 43.76 14.3851 43.392C14.1851 43.024 13.9131 42.744 13.5691 42.552C13.2331 42.36 12.8611 42.264 12.4531 42.264C12.0531 42.264 11.6811 42.364 11.3371 42.564C11.0011 42.756 10.7291 43.04 10.5211 43.416C10.3211 43.784 10.2211 44.212 10.2211 44.7C10.2211 45.196 10.3211 45.632 10.5211 46.008C10.7291 46.376 11.0011 46.66 11.3371 46.86C11.6811 47.052 12.0531 47.148 12.4531 47.148C12.8611 47.148 13.2331 47.052 13.5691 46.86C13.9131 46.66 14.1851 46.376 14.3851 46.008C14.5851 45.632 14.6851 45.192 14.6851 44.688ZM18.3305 42.636C18.5465 42.26 18.8665 41.948 19.2905 41.7C19.7225 41.444 20.2225 41.316 20.7905 41.316C21.3745 41.316 21.9025 41.456 22.3745 41.736C22.8545 42.016 23.2305 42.412 23.5025 42.924C23.7745 43.428 23.9105 44.016 23.9105 44.688C23.9105 45.352 23.7745 45.944 23.5025 46.464C23.2305 46.984 22.8545 47.388 22.3745 47.676C21.9025 47.964 21.3745 48.108 20.7905 48.108C20.2305 48.108 19.7345 47.984 19.3025 47.736C18.8785 47.48 18.5545 47.164 18.3305 46.788V51.12H17.2385V41.424H18.3305V42.636ZM22.7945 44.688C22.7945 44.192 22.6945 43.76 22.4945 43.392C22.2945 43.024 22.0225 42.744 21.6785 42.552C21.3425 42.36 20.9705 42.264 20.5625 42.264C20.1625 42.264 19.7905 42.364 19.4465 42.564C19.1105 42.756 18.8385 43.04 18.6305 43.416C18.4305 43.784 18.3305 44.212 18.3305 44.7C18.3305 45.196 18.4305 45.632 18.6305 46.008C18.8385 46.376 19.1105 46.66 19.4465 46.86C19.7905 47.052 20.1625 47.148 20.5625 47.148C20.9705 47.148 21.3425 47.052 21.6785 46.86C22.0225 46.66 22.2945 46.376 22.4945 46.008C22.6945 45.632 22.7945 45.192 22.7945 44.688ZM26.4398 39.12V48H25.3478V39.12H26.4398ZM28.865 40.356C28.657 40.356 28.481 40.284 28.337 40.14C28.193 39.996 28.121 39.82 28.121 39.612C28.121 39.404 28.193 39.228 28.337 39.084C28.481 38.94 28.657 38.868 28.865 38.868C29.065 38.868 29.233 38.94 29.369 39.084C29.513 39.228 29.585 39.404 29.585 39.612C29.585 39.82 29.513 39.996 29.369 40.14C29.233 40.284 29.065 40.356 28.865 40.356ZM29.393 41.424V48H28.301V41.424H29.393ZM37.2541 44.46C37.2541 44.668 37.2421 44.888 37.2181 45.12H31.9621C32.0021 45.768 32.2221 46.276 32.6221 46.644C33.0301 47.004 33.5221 47.184 34.0981 47.184C34.5701 47.184 34.9621 47.076 35.2741 46.86C35.5941 46.636 35.8181 46.34 35.9461 45.972H37.1221C36.9461 46.604 36.5941 47.12 36.0661 47.52C35.5381 47.912 34.8821 48.108 34.0981 48.108C33.4741 48.108 32.9141 47.968 32.4181 47.688C31.9301 47.408 31.5461 47.012 31.2661 46.5C30.9861 45.98 30.8461 45.38 30.8461 44.7C30.8461 44.02 30.9821 43.424 31.2541 42.912C31.5261 42.4 31.9061 42.008 32.3941 41.736C32.8901 41.456 33.4581 41.316 34.0981 41.316C34.7221 41.316 35.2741 41.452 35.7541 41.724C36.2341 41.996 36.6021 42.372 36.8581 42.852C37.1221 43.324 37.2541 43.86 37.2541 44.46ZM36.1261 44.232C36.1261 43.816 36.0341 43.46 35.8501 43.164C35.6661 42.86 35.4141 42.632 35.0941 42.48C34.7821 42.32 34.4341 42.24 34.0501 42.24C33.4981 42.24 33.0261 42.416 32.6341 42.768C32.2501 43.12 32.0301 43.608 31.9741 44.232H36.1261ZM38.2875 44.688C38.2875 44.016 38.4235 43.428 38.6955 42.924C38.9675 42.412 39.3395 42.016 39.8115 41.736C40.2915 41.456 40.8275 41.316 41.4195 41.316C41.9315 41.316 42.4075 41.436 42.8475 41.676C43.2875 41.908 43.6235 42.216 43.8555 42.6V39.12H44.9595V48H43.8555V46.764C43.6395 47.156 43.3195 47.48 42.8955 47.736C42.4715 47.984 41.9755 48.108 41.4075 48.108C40.8235 48.108 40.2915 47.964 39.8115 47.676C39.3395 47.388 38.9675 46.984 38.6955 46.464C38.4235 45.944 38.2875 45.352 38.2875 44.688ZM43.8555 44.7C43.8555 44.204 43.7555 43.772 43.5555 43.404C43.3555 43.036 43.0835 42.756 42.7395 42.564C42.4035 42.364 42.0315 42.264 41.6235 42.264C41.2155 42.264 40.8435 42.36 40.5075 42.552C40.1715 42.744 39.9035 43.024 39.7035 43.392C39.5035 43.76 39.4035 44.192 39.4035 44.688C39.4035 45.192 39.5035 45.632 39.7035 46.008C39.9035 46.376 40.1715 46.66 40.5075 46.86C40.8435 47.052 41.2155 47.148 41.6235 47.148C42.0315 47.148 42.4035 47.052 42.7395 46.86C43.0835 46.66 43.3555 46.376 43.5555 46.008C43.7555 45.632 43.8555 45.196 43.8555 44.7Z" fill="#404040"/>
<path d="M564.5 0C561.533 0 558.633 0.879735 556.166 2.52796C553.7 4.17618 551.777 6.51886 550.642 9.25975C549.506 12.0006 549.209 15.0166 549.788 17.9264C550.367 20.8361 551.796 23.5088 553.893 25.6066C555.991 27.7044 558.664 29.133 561.574 29.7118C564.483 30.2906 567.499 29.9935 570.24 28.8582C572.981 27.7229 575.324 25.8003 576.972 23.3335C578.62 20.8668 579.5 17.9667 579.5 15C579.496 11.023 577.914 7.21017 575.102 4.39804C572.29 1.5859 568.477 0.00419974 564.5 0ZM571.086 12.3548L563.009 20.4317C562.901 20.539 562.774 20.6241 562.634 20.6822C562.494 20.7402 562.344 20.7701 562.192 20.7701C562.041 20.7701 561.891 20.7402 561.75 20.6822C561.61 20.6241 561.483 20.539 561.376 20.4317L557.914 16.9702C557.698 16.7537 557.576 16.46 557.576 16.1538C557.576 15.8477 557.698 15.554 557.914 15.3375C558.131 15.121 558.425 14.9994 558.731 14.9994C559.037 14.9994 559.331 15.121 559.547 15.3375L562.192 17.9841L569.453 10.7221C569.56 10.6149 569.687 10.5299 569.827 10.4719C569.967 10.4138 570.118 10.384 570.269 10.384C570.421 10.384 570.571 10.4138 570.711 10.4719C570.851 10.5299 570.978 10.6149 571.086 10.7221C571.193 10.8293 571.278 10.9566 571.336 11.0967C571.394 11.2367 571.424 11.3868 571.424 11.5385C571.424 11.6901 571.394 11.8402 571.336 11.9803C571.278 12.1203 571.193 12.2476 571.086 12.3548Z" fill="#96C70A"/>
<path d="M541.001 46.14H537.353L536.681 48H535.529L538.553 39.684H539.813L542.825 48H541.673L541.001 46.14ZM540.689 45.252L539.177 41.028L537.665 45.252H540.689ZM545.235 42.636C545.451 42.26 545.771 41.948 546.195 41.7C546.627 41.444 547.127 41.316 547.695 41.316C548.279 41.316 548.807 41.456 549.279 41.736C549.759 42.016 550.135 42.412 550.407 42.924C550.679 43.428 550.815 44.016 550.815 44.688C550.815 45.352 550.679 45.944 550.407 46.464C550.135 46.984 549.759 47.388 549.279 47.676C548.807 47.964 548.279 48.108 547.695 48.108C547.135 48.108 546.639 47.984 546.207 47.736C545.783 47.48 545.459 47.164 545.235 46.788V51.12H544.143V41.424H545.235V42.636ZM549.699 44.688C549.699 44.192 549.599 43.76 549.399 43.392C549.199 43.024 548.927 42.744 548.583 42.552C548.247 42.36 547.875 42.264 547.467 42.264C547.067 42.264 546.695 42.364 546.351 42.564C546.015 42.756 545.743 43.04 545.535 43.416C545.335 43.784 545.235 44.212 545.235 44.7C545.235 45.196 545.335 45.632 545.535 46.008C545.743 46.376 546.015 46.66 546.351 46.86C546.695 47.052 547.067 47.148 547.467 47.148C547.875 47.148 548.247 47.052 548.583 46.86C548.927 46.66 549.199 46.376 549.399 46.008C549.599 45.632 549.699 45.192 549.699 44.688ZM553.344 42.636C553.56 42.26 553.88 41.948 554.304 41.7C554.736 41.444 555.236 41.316 555.804 41.316C556.388 41.316 556.916 41.456 557.388 41.736C557.868 42.016 558.244 42.412 558.516 42.924C558.788 43.428 558.924 44.016 558.924 44.688C558.924 45.352 558.788 45.944 558.516 46.464C558.244 46.984 557.868 47.388 557.388 47.676C556.916 47.964 556.388 48.108 555.804 48.108C555.244 48.108 554.748 47.984 554.316 47.736C553.892 47.48 553.568 47.164 553.344 46.788V51.12H552.252V41.424H553.344V42.636ZM557.808 44.688C557.808 44.192 557.708 43.76 557.508 43.392C557.308 43.024 557.036 42.744 556.692 42.552C556.356 42.36 555.984 42.264 555.576 42.264C555.176 42.264 554.804 42.364 554.46 42.564C554.124 42.756 553.852 43.04 553.644 43.416C553.444 43.784 553.344 44.212 553.344 44.7C553.344 45.196 553.444 45.632 553.644 46.008C553.852 46.376 554.124 46.66 554.46 46.86C554.804 47.052 555.176 47.148 555.576 47.148C555.984 47.148 556.356 47.052 556.692 46.86C557.036 46.66 557.308 46.376 557.508 46.008C557.708 45.632 557.808 45.192 557.808 44.688ZM561.454 42.492C561.646 42.116 561.918 41.824 562.27 41.616C562.63 41.408 563.066 41.304 563.578 41.304V42.432H563.29C562.066 42.432 561.454 43.096 561.454 44.424V48H560.362V41.424H561.454V42.492ZM567.706 48.108C567.09 48.108 566.53 47.968 566.026 47.688C565.53 47.408 565.138 47.012 564.85 46.5C564.57 45.98 564.43 45.38 564.43 44.7C564.43 44.028 564.574 43.436 564.862 42.924C565.158 42.404 565.558 42.008 566.062 41.736C566.566 41.456 567.13 41.316 567.754 41.316C568.378 41.316 568.942 41.456 569.446 41.736C569.95 42.008 570.346 42.4 570.634 42.912C570.93 43.424 571.078 44.02 571.078 44.7C571.078 45.38 570.926 45.98 570.622 46.5C570.326 47.012 569.922 47.408 569.41 47.688C568.898 47.968 568.33 48.108 567.706 48.108ZM567.706 47.148C568.098 47.148 568.466 47.056 568.81 46.872C569.154 46.688 569.43 46.412 569.638 46.044C569.854 45.676 569.962 45.228 569.962 44.7C569.962 44.172 569.858 43.724 569.65 43.356C569.442 42.988 569.17 42.716 568.834 42.54C568.498 42.356 568.134 42.264 567.742 42.264C567.342 42.264 566.974 42.356 566.638 42.54C566.31 42.716 566.046 42.988 565.846 43.356C565.646 43.724 565.546 44.172 565.546 44.7C565.546 45.236 565.642 45.688 565.834 46.056C566.034 46.424 566.298 46.7 566.626 46.884C566.954 47.06 567.314 47.148 567.706 47.148ZM574.962 46.992L577.002 41.424H578.166L575.586 48H574.314L571.734 41.424H572.91L574.962 46.992ZM585.24 44.46C585.24 44.668 585.228 44.888 585.204 45.12H579.948C579.988 45.768 580.208 46.276 580.608 46.644C581.016 47.004 581.508 47.184 582.084 47.184C582.556 47.184 582.948 47.076 583.26 46.86C583.58 46.636 583.804 46.34 583.932 45.972H585.108C584.932 46.604 584.58 47.12 584.052 47.52C583.524 47.912 582.868 48.108 582.084 48.108C581.46 48.108 580.9 47.968 580.404 47.688C579.916 47.408 579.532 47.012 579.252 46.5C578.972 45.98 578.832 45.38 578.832 44.7C578.832 44.02 578.968 43.424 579.24 42.912C579.512 42.4 579.892 42.008 580.38 41.736C580.876 41.456 581.444 41.316 582.084 41.316C582.708 41.316 583.26 41.452 583.74 41.724C584.22 41.996 584.588 42.372 584.844 42.852C585.108 43.324 585.24 43.86 585.24 44.46ZM584.112 44.232C584.112 43.816 584.02 43.46 583.836 43.164C583.652 42.86 583.4 42.632 583.08 42.48C582.768 42.32 582.42 42.24 582.036 42.24C581.484 42.24 581.012 42.416 580.62 42.768C580.236 43.12 580.016 43.608 579.96 44.232H584.112ZM586.274 44.688C586.274 44.016 586.41 43.428 586.682 42.924C586.954 42.412 587.326 42.016 587.798 41.736C588.278 41.456 588.814 41.316 589.406 41.316C589.918 41.316 590.394 41.436 590.834 41.676C591.274 41.908 591.61 42.216 591.842 42.6V39.12H592.946V48H591.842V46.764C591.626 47.156 591.306 47.48 590.882 47.736C590.458 47.984 589.962 48.108 589.394 48.108C588.81 48.108 588.278 47.964 587.798 47.676C587.326 47.388 586.954 46.984 586.682 46.464C586.41 45.944 586.274 45.352 586.274 44.688ZM591.842 44.7C591.842 44.204 591.742 43.772 591.542 43.404C591.342 43.036 591.07 42.756 590.726 42.564C590.39 42.364 590.018 42.264 589.61 42.264C589.202 42.264 588.83 42.36 588.494 42.552C588.158 42.744 587.89 43.024 587.69 43.392C587.49 43.76 587.39 44.192 587.39 44.688C587.39 45.192 587.49 45.632 587.69 46.008C587.89 46.376 588.158 46.66 588.494 46.86C588.83 47.052 589.202 47.148 589.61 47.148C590.018 47.148 590.39 47.052 590.726 46.86C591.07 46.66 591.342 46.376 591.542 46.008C591.742 45.632 591.842 45.196 591.842 44.7Z" fill="#404040"/>
<rect x="1098" width="30" height="30" rx="15" fill="#404040"/>
<path d="M1109.58 11.982C1109.63 11.0487 1109.95 10.33 1110.56 9.826C1111.18 9.31267 1111.98 9.056 1112.98 9.056C1113.66 9.056 1114.25 9.17733 1114.73 9.42C1115.22 9.65333 1115.58 9.97533 1115.82 10.386C1116.08 10.7873 1116.2 11.2447 1116.2 11.758C1116.2 12.346 1116.05 12.8453 1115.74 13.256C1115.44 13.6573 1115.08 13.928 1114.66 14.068V14.124C1115.2 14.292 1115.62 14.5907 1115.92 15.02C1116.23 15.4493 1116.38 16 1116.38 16.672C1116.38 17.232 1116.25 17.7313 1115.99 18.17C1115.74 18.6087 1115.36 18.954 1114.86 19.206C1114.36 19.4487 1113.77 19.57 1113.07 19.57C1112.01 19.57 1111.15 19.304 1110.49 18.772C1109.83 18.24 1109.48 17.456 1109.44 16.42H1111.34C1111.36 16.8773 1111.52 17.246 1111.81 17.526C1112.1 17.7967 1112.51 17.932 1113.02 17.932C1113.5 17.932 1113.86 17.8013 1114.12 17.54C1114.38 17.2693 1114.51 16.924 1114.51 16.504C1114.51 15.944 1114.33 15.5427 1113.98 15.3C1113.62 15.0573 1113.07 14.936 1112.32 14.936H1111.92V13.326H1112.32C1113.65 13.326 1114.31 12.8827 1114.31 11.996C1114.31 11.5947 1114.19 11.282 1113.95 11.058C1113.71 10.834 1113.37 10.722 1112.93 10.722C1112.49 10.722 1112.15 10.8433 1111.9 11.086C1111.67 11.3193 1111.53 11.618 1111.5 11.982H1109.58Z" fill="#F7F7F7"/>
<path d="M1086.63 39.636C1087.55 39.636 1088.33 39.808 1089 40.152C1089.67 40.488 1090.18 40.972 1090.53 41.604C1090.89 42.236 1091.07 42.98 1091.07 43.836C1091.07 44.692 1090.89 45.436 1090.53 46.068C1090.18 46.692 1089.67 47.172 1089 47.508C1088.33 47.836 1087.55 48 1086.63 48H1084.03V39.636H1086.63ZM1086.63 47.1C1087.71 47.1 1088.54 46.816 1089.11 46.248C1089.67 45.672 1089.96 44.868 1089.96 43.836C1089.96 42.796 1089.67 41.984 1089.09 41.4C1088.53 40.816 1087.71 40.524 1086.63 40.524H1085.12V47.1H1086.63ZM1093.08 40.356C1092.87 40.356 1092.69 40.284 1092.55 40.14C1092.41 39.996 1092.33 39.82 1092.33 39.612C1092.33 39.404 1092.41 39.228 1092.55 39.084C1092.69 38.94 1092.87 38.868 1093.08 38.868C1093.28 38.868 1093.45 38.94 1093.58 39.084C1093.73 39.228 1093.8 39.404 1093.8 39.612C1093.8 39.82 1093.73 39.996 1093.58 40.14C1093.45 40.284 1093.28 40.356 1093.08 40.356ZM1093.61 41.424V48H1092.51V41.424H1093.61ZM1097.79 48.108C1097.29 48.108 1096.84 48.024 1096.44 47.856C1096.04 47.68 1095.72 47.44 1095.49 47.136C1095.26 46.824 1095.13 46.468 1095.11 46.068H1096.23C1096.27 46.396 1096.42 46.664 1096.69 46.872C1096.97 47.08 1097.33 47.184 1097.78 47.184C1098.2 47.184 1098.53 47.092 1098.77 46.908C1099.01 46.724 1099.13 46.492 1099.13 46.212C1099.13 45.924 1099 45.712 1098.74 45.576C1098.49 45.432 1098.09 45.292 1097.55 45.156C1097.07 45.028 1096.67 44.9 1096.35 44.772C1096.05 44.636 1095.79 44.44 1095.56 44.184C1095.35 43.92 1095.24 43.576 1095.24 43.152C1095.24 42.816 1095.34 42.508 1095.54 42.228C1095.74 41.948 1096.02 41.728 1096.39 41.568C1096.76 41.4 1097.18 41.316 1097.65 41.316C1098.38 41.316 1098.97 41.5 1099.41 41.868C1099.86 42.236 1100.1 42.74 1100.13 43.38H1099.04C1099.02 43.036 1098.88 42.76 1098.62 42.552C1098.37 42.344 1098.04 42.24 1097.61 42.24C1097.22 42.24 1096.91 42.324 1096.68 42.492C1096.45 42.66 1096.33 42.88 1096.33 43.152C1096.33 43.368 1096.4 43.548 1096.53 43.692C1096.68 43.828 1096.85 43.94 1097.06 44.028C1097.28 44.108 1097.57 44.2 1097.95 44.304C1098.42 44.432 1098.81 44.56 1099.1 44.688C1099.4 44.808 1099.65 44.992 1099.86 45.24C1100.07 45.488 1100.19 45.812 1100.19 46.212C1100.19 46.572 1100.09 46.896 1099.89 47.184C1099.69 47.472 1099.41 47.7 1099.04 47.868C1098.68 48.028 1098.27 48.108 1097.79 48.108ZM1102.83 42.648C1103.05 42.256 1103.38 41.936 1103.81 41.688C1104.24 41.44 1104.74 41.316 1105.29 41.316C1105.88 41.316 1106.41 41.456 1106.88 41.736C1107.36 42.016 1107.73 42.412 1108 42.924C1108.27 43.428 1108.41 44.016 1108.41 44.688C1108.41 45.352 1108.27 45.944 1108 46.464C1107.73 46.984 1107.35 47.388 1106.87 47.676C1106.4 47.964 1105.87 48.108 1105.29 48.108C1104.72 48.108 1104.22 47.984 1103.79 47.736C1103.36 47.488 1103.04 47.172 1102.83 46.788V48H1101.74V39.12H1102.83V42.648ZM1107.29 44.688C1107.29 44.192 1107.19 43.76 1106.99 43.392C1106.79 43.024 1106.52 42.744 1106.18 42.552C1105.84 42.36 1105.47 42.264 1105.06 42.264C1104.66 42.264 1104.29 42.364 1103.94 42.564C1103.61 42.756 1103.34 43.04 1103.13 43.416C1102.93 43.784 1102.83 44.212 1102.83 44.7C1102.83 45.196 1102.93 45.632 1103.13 46.008C1103.34 46.376 1103.61 46.66 1103.94 46.86C1104.29 47.052 1104.66 47.148 1105.06 47.148C1105.47 47.148 1105.84 47.052 1106.18 46.86C1106.52 46.66 1106.79 46.376 1106.99 46.008C1107.19 45.632 1107.29 45.192 1107.29 44.688ZM1115.68 41.424V48H1114.59V47.028C1114.38 47.364 1114.09 47.628 1113.71 47.82C1113.34 48.004 1112.93 48.096 1112.49 48.096C1111.97 48.096 1111.51 47.992 1111.11 47.784C1110.7 47.568 1110.37 47.248 1110.13 46.824C1109.9 46.4 1109.79 45.884 1109.79 45.276V41.424H1110.87V45.132C1110.87 45.78 1111.03 46.28 1111.36 46.632C1111.69 46.976 1112.13 47.148 1112.7 47.148C1113.29 47.148 1113.75 46.968 1114.08 46.608C1114.42 46.248 1114.59 45.724 1114.59 45.036V41.424H1115.68ZM1118.61 42.492C1118.81 42.116 1119.08 41.824 1119.43 41.616C1119.79 41.408 1120.23 41.304 1120.74 41.304V42.432H1120.45C1119.23 42.432 1118.61 43.096 1118.61 44.424V48H1117.52V41.424H1118.61V42.492ZM1124.33 48.108C1123.82 48.108 1123.37 48.024 1122.97 47.856C1122.57 47.68 1122.25 47.44 1122.02 47.136C1121.79 46.824 1121.66 46.468 1121.64 46.068H1122.77C1122.8 46.396 1122.95 46.664 1123.22 46.872C1123.5 47.08 1123.87 47.184 1124.31 47.184C1124.73 47.184 1125.06 47.092 1125.3 46.908C1125.54 46.724 1125.66 46.492 1125.66 46.212C1125.66 45.924 1125.53 45.712 1125.27 45.576C1125.02 45.432 1124.62 45.292 1124.09 45.156C1123.6 45.028 1123.2 44.9 1122.89 44.772C1122.58 44.636 1122.32 44.44 1122.09 44.184C1121.88 43.92 1121.77 43.576 1121.77 43.152C1121.77 42.816 1121.87 42.508 1122.07 42.228C1122.27 41.948 1122.55 41.728 1122.92 41.568C1123.29 41.4 1123.71 41.316 1124.18 41.316C1124.91 41.316 1125.5 41.5 1125.95 41.868C1126.39 42.236 1126.63 42.74 1126.67 43.38H1125.57C1125.55 43.036 1125.41 42.76 1125.15 42.552C1124.91 42.344 1124.57 42.24 1124.15 42.24C1123.75 42.24 1123.44 42.324 1123.21 42.492C1122.98 42.66 1122.86 42.88 1122.86 43.152C1122.86 43.368 1122.93 43.548 1123.07 43.692C1123.21 43.828 1123.39 43.94 1123.59 44.028C1123.81 44.108 1124.11 44.2 1124.48 44.304C1124.95 44.432 1125.34 44.56 1125.63 44.688C1125.93 44.808 1126.18 44.992 1126.39 45.24C1126.61 45.488 1126.72 45.812 1126.73 46.212C1126.73 46.572 1126.63 46.896 1126.43 47.184C1126.23 47.472 1125.94 47.7 1125.57 47.868C1125.21 48.028 1124.8 48.108 1124.33 48.108ZM1134.27 44.46C1134.27 44.668 1134.26 44.888 1134.23 45.12H1128.98C1129.02 45.768 1129.24 46.276 1129.64 46.644C1130.04 47.004 1130.54 47.184 1131.11 47.184C1131.58 47.184 1131.98 47.076 1132.29 46.86C1132.61 46.636 1132.83 46.34 1132.96 45.972H1134.14C1133.96 46.604 1133.61 47.12 1133.08 47.52C1132.55 47.912 1131.9 48.108 1131.11 48.108C1130.49 48.108 1129.93 47.968 1129.43 47.688C1128.94 47.408 1128.56 47.012 1128.28 46.5C1128 45.98 1127.86 45.38 1127.86 44.7C1127.86 44.02 1128 43.424 1128.27 42.912C1128.54 42.4 1128.92 42.008 1129.41 41.736C1129.9 41.456 1130.47 41.316 1131.11 41.316C1131.74 41.316 1132.29 41.452 1132.77 41.724C1133.25 41.996 1133.62 42.372 1133.87 42.852C1134.14 43.324 1134.27 43.86 1134.27 44.46ZM1133.14 44.232C1133.14 43.816 1133.05 43.46 1132.86 43.164C1132.68 42.86 1132.43 42.632 1132.11 42.48C1131.8 42.32 1131.45 42.24 1131.06 42.24C1130.51 42.24 1130.04 42.416 1129.65 42.768C1129.26 43.12 1129.04 43.608 1128.99 44.232H1133.14ZM1135.3 44.688C1135.3 44.016 1135.44 43.428 1135.71 42.924C1135.98 42.412 1136.35 42.016 1136.83 41.736C1137.31 41.456 1137.84 41.316 1138.43 41.316C1138.95 41.316 1139.42 41.436 1139.86 41.676C1140.3 41.908 1140.64 42.216 1140.87 42.6V39.12H1141.97V48H1140.87V46.764C1140.65 47.156 1140.33 47.48 1139.91 47.736C1139.49 47.984 1138.99 48.108 1138.42 48.108C1137.84 48.108 1137.31 47.964 1136.83 47.676C1136.35 47.388 1135.98 46.984 1135.71 46.464C1135.44 45.944 1135.3 45.352 1135.3 44.688ZM1140.87 44.7C1140.87 44.204 1140.77 43.772 1140.57 43.404C1140.37 43.036 1140.1 42.756 1139.75 42.564C1139.42 42.364 1139.05 42.264 1138.64 42.264C1138.23 42.264 1137.86 42.36 1137.52 42.552C1137.19 42.744 1136.92 43.024 1136.72 43.392C1136.52 43.76 1136.42 44.192 1136.42 44.688C1136.42 45.192 1136.52 45.632 1136.72 46.008C1136.92 46.376 1137.19 46.66 1137.52 46.86C1137.86 47.052 1138.23 47.148 1138.64 47.148C1139.05 47.148 1139.42 47.052 1139.75 46.86C1140.1 46.66 1140.37 46.376 1140.57 46.008C1140.77 45.632 1140.87 45.196 1140.87 44.7Z" fill="#404040"/>
</svg>
