<svg width="1151" height="61" viewBox="0 0 1151 61" fill="none" xmlns="http://www.w3.org/2000/svg">
<g filter="url(#filter0_d_1517_5385)">
<line x1="40.5" y1="15" x2="555.5" y2="15" stroke="#96C70A" stroke-width="2"/>
<line x1="582.5" y1="15" x2="1102.5" y2="15" stroke="#96C70A" stroke-width="2"/>
<path d="M27 0C24.0333 0 21.1332 0.879735 18.6665 2.52796C16.1997 4.17618 14.2771 6.51886 13.1418 9.25975C12.0065 12.0006 11.7094 15.0166 12.2882 17.9264C12.867 20.8361 14.2956 23.5088 16.3934 25.6066C18.4912 27.7044 21.1639 29.133 24.0736 29.7118C26.9834 30.2906 29.9994 29.9935 32.7403 28.8582C35.4811 27.7229 37.8238 25.8003 39.472 23.3335C41.1203 20.8668 42 17.9667 42 15C41.9958 11.023 40.4141 7.21017 37.602 4.39804C34.7898 1.5859 30.977 0.00419974 27 0ZM33.5856 12.3548L25.5087 20.4317C25.4015 20.539 25.2742 20.6241 25.1342 20.6822C24.9941 20.7402 24.8439 20.7701 24.6923 20.7701C24.5407 20.7701 24.3905 20.7402 24.2505 20.6822C24.1104 20.6241 23.9831 20.539 23.876 20.4317L20.4144 16.9702C20.1979 16.7537 20.0763 16.46 20.0763 16.1538C20.0763 15.8477 20.1979 15.554 20.4144 15.3375C20.6309 15.121 20.9246 14.9994 21.2308 14.9994C21.537 14.9994 21.8306 15.121 22.0471 15.3375L24.6923 17.9841L31.9529 10.7221C32.0601 10.6149 32.1874 10.5299 32.3274 10.4719C32.4675 10.4138 32.6176 10.384 32.7692 10.384C32.9208 10.384 33.071 10.4138 33.211 10.4719C33.3511 10.5299 33.4784 10.6149 33.5856 10.7221C33.6928 10.8293 33.7778 10.9566 33.8358 11.0967C33.8939 11.2367 33.9237 11.3868 33.9237 11.5385C33.9237 11.6901 33.8939 11.8402 33.8358 11.9803C33.7778 12.1203 33.6928 12.2476 33.5856 12.3548Z" fill="#96C70A"/>
<path d="M9.98714 46.14H6.33914L5.66714 48H4.51514L7.53914 39.684H8.79914L11.8111 48H10.6591L9.98714 46.14ZM9.67514 45.252L8.16314 41.028L6.65114 45.252H9.67514ZM14.2211 42.636C14.4371 42.26 14.7571 41.948 15.1811 41.7C15.6131 41.444 16.1131 41.316 16.6811 41.316C17.2651 41.316 17.7931 41.456 18.2651 41.736C18.7451 42.016 19.1211 42.412 19.3931 42.924C19.6651 43.428 19.8011 44.016 19.8011 44.688C19.8011 45.352 19.6651 45.944 19.3931 46.464C19.1211 46.984 18.7451 47.388 18.2651 47.676C17.7931 47.964 17.2651 48.108 16.6811 48.108C16.1211 48.108 15.6251 47.984 15.1931 47.736C14.7691 47.48 14.4451 47.164 14.2211 46.788V51.12H13.1291V41.424H14.2211V42.636ZM18.6851 44.688C18.6851 44.192 18.5851 43.76 18.3851 43.392C18.1851 43.024 17.9131 42.744 17.5691 42.552C17.2331 42.36 16.8611 42.264 16.4531 42.264C16.0531 42.264 15.6811 42.364 15.3371 42.564C15.0011 42.756 14.7291 43.04 14.5211 43.416C14.3211 43.784 14.2211 44.212 14.2211 44.7C14.2211 45.196 14.3211 45.632 14.5211 46.008C14.7291 46.376 15.0011 46.66 15.3371 46.86C15.6811 47.052 16.0531 47.148 16.4531 47.148C16.8611 47.148 17.2331 47.052 17.5691 46.86C17.9131 46.66 18.1851 46.376 18.3851 46.008C18.5851 45.632 18.6851 45.192 18.6851 44.688ZM22.3305 42.636C22.5465 42.26 22.8665 41.948 23.2905 41.7C23.7225 41.444 24.2225 41.316 24.7905 41.316C25.3745 41.316 25.9025 41.456 26.3745 41.736C26.8545 42.016 27.2305 42.412 27.5025 42.924C27.7745 43.428 27.9105 44.016 27.9105 44.688C27.9105 45.352 27.7745 45.944 27.5025 46.464C27.2305 46.984 26.8545 47.388 26.3745 47.676C25.9025 47.964 25.3745 48.108 24.7905 48.108C24.2305 48.108 23.7345 47.984 23.3025 47.736C22.8785 47.48 22.5545 47.164 22.3305 46.788V51.12H21.2385V41.424H22.3305V42.636ZM26.7945 44.688C26.7945 44.192 26.6945 43.76 26.4945 43.392C26.2945 43.024 26.0225 42.744 25.6785 42.552C25.3425 42.36 24.9705 42.264 24.5625 42.264C24.1625 42.264 23.7905 42.364 23.4465 42.564C23.1105 42.756 22.8385 43.04 22.6305 43.416C22.4305 43.784 22.3305 44.212 22.3305 44.7C22.3305 45.196 22.4305 45.632 22.6305 46.008C22.8385 46.376 23.1105 46.66 23.4465 46.86C23.7905 47.052 24.1625 47.148 24.5625 47.148C24.9705 47.148 25.3425 47.052 25.6785 46.86C26.0225 46.66 26.2945 46.376 26.4945 46.008C26.6945 45.632 26.7945 45.192 26.7945 44.688ZM30.4398 39.12V48H29.3478V39.12H30.4398ZM32.865 40.356C32.657 40.356 32.481 40.284 32.337 40.14C32.193 39.996 32.121 39.82 32.121 39.612C32.121 39.404 32.193 39.228 32.337 39.084C32.481 38.94 32.657 38.868 32.865 38.868C33.065 38.868 33.233 38.94 33.369 39.084C33.513 39.228 33.585 39.404 33.585 39.612C33.585 39.82 33.513 39.996 33.369 40.14C33.233 40.284 33.065 40.356 32.865 40.356ZM33.393 41.424V48H32.301V41.424H33.393ZM41.2541 44.46C41.2541 44.668 41.2421 44.888 41.2181 45.12H35.9621C36.0021 45.768 36.2221 46.276 36.6221 46.644C37.0301 47.004 37.5221 47.184 38.0981 47.184C38.5701 47.184 38.9621 47.076 39.2741 46.86C39.5941 46.636 39.8181 46.34 39.9461 45.972H41.1221C40.9461 46.604 40.5941 47.12 40.0661 47.52C39.5381 47.912 38.8821 48.108 38.0981 48.108C37.4741 48.108 36.9141 47.968 36.4181 47.688C35.9301 47.408 35.5461 47.012 35.2661 46.5C34.9861 45.98 34.8461 45.38 34.8461 44.7C34.8461 44.02 34.9821 43.424 35.2541 42.912C35.5261 42.4 35.9061 42.008 36.3941 41.736C36.8901 41.456 37.4581 41.316 38.0981 41.316C38.7221 41.316 39.2741 41.452 39.7541 41.724C40.2341 41.996 40.6021 42.372 40.8581 42.852C41.1221 43.324 41.2541 43.86 41.2541 44.46ZM40.1261 44.232C40.1261 43.816 40.0341 43.46 39.8501 43.164C39.6661 42.86 39.4141 42.632 39.0941 42.48C38.7821 42.32 38.4341 42.24 38.0501 42.24C37.4981 42.24 37.0261 42.416 36.6341 42.768C36.2501 43.12 36.0301 43.608 35.9741 44.232H40.1261ZM42.2875 44.688C42.2875 44.016 42.4235 43.428 42.6955 42.924C42.9675 42.412 43.3395 42.016 43.8115 41.736C44.2915 41.456 44.8275 41.316 45.4195 41.316C45.9315 41.316 46.4075 41.436 46.8475 41.676C47.2875 41.908 47.6235 42.216 47.8555 42.6V39.12H48.9595V48H47.8555V46.764C47.6395 47.156 47.3195 47.48 46.8955 47.736C46.4715 47.984 45.9755 48.108 45.4075 48.108C44.8235 48.108 44.2915 47.964 43.8115 47.676C43.3395 47.388 42.9675 46.984 42.6955 46.464C42.4235 45.944 42.2875 45.352 42.2875 44.688ZM47.8555 44.7C47.8555 44.204 47.7555 43.772 47.5555 43.404C47.3555 43.036 47.0835 42.756 46.7395 42.564C46.4035 42.364 46.0315 42.264 45.6235 42.264C45.2155 42.264 44.8435 42.36 44.5075 42.552C44.1715 42.744 43.9035 43.024 43.7035 43.392C43.5035 43.76 43.4035 44.192 43.4035 44.688C43.4035 45.192 43.5035 45.632 43.7035 46.008C43.9035 46.376 44.1715 46.66 44.5075 46.86C44.8435 47.052 45.2155 47.148 45.6235 47.148C46.0315 47.148 46.4035 47.052 46.7395 46.86C47.0835 46.66 47.3555 46.376 47.5555 46.008C47.7555 45.632 47.8555 45.196 47.8555 44.7Z" fill="#404040"/>
<path d="M568.5 0C565.533 0 562.633 0.879735 560.166 2.52796C557.7 4.17618 555.777 6.51886 554.642 9.25975C553.506 12.0006 553.209 15.0166 553.788 17.9264C554.367 20.8361 555.796 23.5088 557.893 25.6066C559.991 27.7044 562.664 29.133 565.574 29.7118C568.483 30.2906 571.499 29.9935 574.24 28.8582C576.981 27.7229 579.324 25.8003 580.972 23.3335C582.62 20.8668 583.5 17.9667 583.5 15C583.496 11.023 581.914 7.21017 579.102 4.39804C576.29 1.5859 572.477 0.00419974 568.5 0ZM575.086 12.3548L567.009 20.4317C566.901 20.539 566.774 20.6241 566.634 20.6822C566.494 20.7402 566.344 20.7701 566.192 20.7701C566.041 20.7701 565.891 20.7402 565.75 20.6822C565.61 20.6241 565.483 20.539 565.376 20.4317L561.914 16.9702C561.698 16.7537 561.576 16.46 561.576 16.1538C561.576 15.8477 561.698 15.554 561.914 15.3375C562.131 15.121 562.425 14.9994 562.731 14.9994C563.037 14.9994 563.331 15.121 563.547 15.3375L566.192 17.9841L573.453 10.7221C573.56 10.6149 573.687 10.5299 573.827 10.4719C573.967 10.4138 574.118 10.384 574.269 10.384C574.421 10.384 574.571 10.4138 574.711 10.4719C574.851 10.5299 574.978 10.6149 575.086 10.7221C575.193 10.8293 575.278 10.9566 575.336 11.0967C575.394 11.2367 575.424 11.3868 575.424 11.5385C575.424 11.6901 575.394 11.8402 575.336 11.9803C575.278 12.1203 575.193 12.2476 575.086 12.3548Z" fill="#96C70A"/>
<path d="M545.001 46.14H541.353L540.681 48H539.529L542.553 39.684H543.813L546.825 48H545.673L545.001 46.14ZM544.689 45.252L543.177 41.028L541.665 45.252H544.689ZM549.235 42.636C549.451 42.26 549.771 41.948 550.195 41.7C550.627 41.444 551.127 41.316 551.695 41.316C552.279 41.316 552.807 41.456 553.279 41.736C553.759 42.016 554.135 42.412 554.407 42.924C554.679 43.428 554.815 44.016 554.815 44.688C554.815 45.352 554.679 45.944 554.407 46.464C554.135 46.984 553.759 47.388 553.279 47.676C552.807 47.964 552.279 48.108 551.695 48.108C551.135 48.108 550.639 47.984 550.207 47.736C549.783 47.48 549.459 47.164 549.235 46.788V51.12H548.143V41.424H549.235V42.636ZM553.699 44.688C553.699 44.192 553.599 43.76 553.399 43.392C553.199 43.024 552.927 42.744 552.583 42.552C552.247 42.36 551.875 42.264 551.467 42.264C551.067 42.264 550.695 42.364 550.351 42.564C550.015 42.756 549.743 43.04 549.535 43.416C549.335 43.784 549.235 44.212 549.235 44.7C549.235 45.196 549.335 45.632 549.535 46.008C549.743 46.376 550.015 46.66 550.351 46.86C550.695 47.052 551.067 47.148 551.467 47.148C551.875 47.148 552.247 47.052 552.583 46.86C552.927 46.66 553.199 46.376 553.399 46.008C553.599 45.632 553.699 45.192 553.699 44.688ZM557.344 42.636C557.56 42.26 557.88 41.948 558.304 41.7C558.736 41.444 559.236 41.316 559.804 41.316C560.388 41.316 560.916 41.456 561.388 41.736C561.868 42.016 562.244 42.412 562.516 42.924C562.788 43.428 562.924 44.016 562.924 44.688C562.924 45.352 562.788 45.944 562.516 46.464C562.244 46.984 561.868 47.388 561.388 47.676C560.916 47.964 560.388 48.108 559.804 48.108C559.244 48.108 558.748 47.984 558.316 47.736C557.892 47.48 557.568 47.164 557.344 46.788V51.12H556.252V41.424H557.344V42.636ZM561.808 44.688C561.808 44.192 561.708 43.76 561.508 43.392C561.308 43.024 561.036 42.744 560.692 42.552C560.356 42.36 559.984 42.264 559.576 42.264C559.176 42.264 558.804 42.364 558.46 42.564C558.124 42.756 557.852 43.04 557.644 43.416C557.444 43.784 557.344 44.212 557.344 44.7C557.344 45.196 557.444 45.632 557.644 46.008C557.852 46.376 558.124 46.66 558.46 46.86C558.804 47.052 559.176 47.148 559.576 47.148C559.984 47.148 560.356 47.052 560.692 46.86C561.036 46.66 561.308 46.376 561.508 46.008C561.708 45.632 561.808 45.192 561.808 44.688ZM565.454 42.492C565.646 42.116 565.918 41.824 566.27 41.616C566.63 41.408 567.066 41.304 567.578 41.304V42.432H567.29C566.066 42.432 565.454 43.096 565.454 44.424V48H564.362V41.424H565.454V42.492ZM571.706 48.108C571.09 48.108 570.53 47.968 570.026 47.688C569.53 47.408 569.138 47.012 568.85 46.5C568.57 45.98 568.43 45.38 568.43 44.7C568.43 44.028 568.574 43.436 568.862 42.924C569.158 42.404 569.558 42.008 570.062 41.736C570.566 41.456 571.13 41.316 571.754 41.316C572.378 41.316 572.942 41.456 573.446 41.736C573.95 42.008 574.346 42.4 574.634 42.912C574.93 43.424 575.078 44.02 575.078 44.7C575.078 45.38 574.926 45.98 574.622 46.5C574.326 47.012 573.922 47.408 573.41 47.688C572.898 47.968 572.33 48.108 571.706 48.108ZM571.706 47.148C572.098 47.148 572.466 47.056 572.81 46.872C573.154 46.688 573.43 46.412 573.638 46.044C573.854 45.676 573.962 45.228 573.962 44.7C573.962 44.172 573.858 43.724 573.65 43.356C573.442 42.988 573.17 42.716 572.834 42.54C572.498 42.356 572.134 42.264 571.742 42.264C571.342 42.264 570.974 42.356 570.638 42.54C570.31 42.716 570.046 42.988 569.846 43.356C569.646 43.724 569.546 44.172 569.546 44.7C569.546 45.236 569.642 45.688 569.834 46.056C570.034 46.424 570.298 46.7 570.626 46.884C570.954 47.06 571.314 47.148 571.706 47.148ZM578.962 46.992L581.002 41.424H582.166L579.586 48H578.314L575.734 41.424H576.91L578.962 46.992ZM589.24 44.46C589.24 44.668 589.228 44.888 589.204 45.12H583.948C583.988 45.768 584.208 46.276 584.608 46.644C585.016 47.004 585.508 47.184 586.084 47.184C586.556 47.184 586.948 47.076 587.26 46.86C587.58 46.636 587.804 46.34 587.932 45.972H589.108C588.932 46.604 588.58 47.12 588.052 47.52C587.524 47.912 586.868 48.108 586.084 48.108C585.46 48.108 584.9 47.968 584.404 47.688C583.916 47.408 583.532 47.012 583.252 46.5C582.972 45.98 582.832 45.38 582.832 44.7C582.832 44.02 582.968 43.424 583.24 42.912C583.512 42.4 583.892 42.008 584.38 41.736C584.876 41.456 585.444 41.316 586.084 41.316C586.708 41.316 587.26 41.452 587.74 41.724C588.22 41.996 588.588 42.372 588.844 42.852C589.108 43.324 589.24 43.86 589.24 44.46ZM588.112 44.232C588.112 43.816 588.02 43.46 587.836 43.164C587.652 42.86 587.4 42.632 587.08 42.48C586.768 42.32 586.42 42.24 586.036 42.24C585.484 42.24 585.012 42.416 584.62 42.768C584.236 43.12 584.016 43.608 583.96 44.232H588.112ZM590.274 44.688C590.274 44.016 590.41 43.428 590.682 42.924C590.954 42.412 591.326 42.016 591.798 41.736C592.278 41.456 592.814 41.316 593.406 41.316C593.918 41.316 594.394 41.436 594.834 41.676C595.274 41.908 595.61 42.216 595.842 42.6V39.12H596.946V48H595.842V46.764C595.626 47.156 595.306 47.48 594.882 47.736C594.458 47.984 593.962 48.108 593.394 48.108C592.81 48.108 592.278 47.964 591.798 47.676C591.326 47.388 590.954 46.984 590.682 46.464C590.41 45.944 590.274 45.352 590.274 44.688ZM595.842 44.7C595.842 44.204 595.742 43.772 595.542 43.404C595.342 43.036 595.07 42.756 594.726 42.564C594.39 42.364 594.018 42.264 593.61 42.264C593.202 42.264 592.83 42.36 592.494 42.552C592.158 42.744 591.89 43.024 591.69 43.392C591.49 43.76 591.39 44.192 591.39 44.688C591.39 45.192 591.49 45.632 591.69 46.008C591.89 46.376 592.158 46.66 592.494 46.86C592.83 47.052 593.202 47.148 593.61 47.148C594.018 47.148 594.39 47.052 594.726 46.86C595.07 46.66 595.342 46.376 595.542 46.008C595.742 45.632 595.842 45.196 595.842 44.7Z" fill="#404040"/>
<path d="M1117 0C1114.03 0 1111.13 0.879735 1108.67 2.52796C1106.2 4.17618 1104.28 6.51886 1103.14 9.25975C1102.01 12.0006 1101.71 15.0166 1102.29 17.9264C1102.87 20.8361 1104.3 23.5088 1106.39 25.6066C1108.49 27.7044 1111.16 29.133 1114.07 29.7118C1116.98 30.2906 1120 29.9935 1122.74 28.8582C1125.48 27.7229 1127.82 25.8003 1129.47 23.3335C1131.12 20.8668 1132 17.9667 1132 15C1132 11.023 1130.41 7.21017 1127.6 4.39804C1124.79 1.5859 1120.98 0.00419974 1117 0ZM1123.59 12.3548L1115.51 20.4317C1115.4 20.539 1115.27 20.6241 1115.13 20.6822C1114.99 20.7402 1114.84 20.7701 1114.69 20.7701C1114.54 20.7701 1114.39 20.7402 1114.25 20.6822C1114.11 20.6241 1113.98 20.539 1113.88 20.4317L1110.41 16.9702C1110.2 16.7537 1110.08 16.46 1110.08 16.1538C1110.08 15.8477 1110.2 15.554 1110.41 15.3375C1110.63 15.121 1110.92 14.9994 1111.23 14.9994C1111.54 14.9994 1111.83 15.121 1112.05 15.3375L1114.69 17.9841L1121.95 10.7221C1122.06 10.6149 1122.19 10.5299 1122.33 10.4719C1122.47 10.4138 1122.62 10.384 1122.77 10.384C1122.92 10.384 1123.07 10.4138 1123.21 10.4719C1123.35 10.5299 1123.48 10.6149 1123.59 10.7221C1123.69 10.8293 1123.78 10.9566 1123.84 11.0967C1123.89 11.2367 1123.92 11.3868 1123.92 11.5385C1123.92 11.6901 1123.89 11.8402 1123.84 11.9803C1123.78 12.1203 1123.69 12.2476 1123.59 12.3548Z" fill="#96C70A"/>
<path d="M1090.63 39.636C1091.55 39.636 1092.33 39.808 1093 40.152C1093.67 40.488 1094.18 40.972 1094.53 41.604C1094.89 42.236 1095.07 42.98 1095.07 43.836C1095.07 44.692 1094.89 45.436 1094.53 46.068C1094.18 46.692 1093.67 47.172 1093 47.508C1092.33 47.836 1091.55 48 1090.63 48H1088.03V39.636H1090.63ZM1090.63 47.1C1091.71 47.1 1092.54 46.816 1093.11 46.248C1093.67 45.672 1093.96 44.868 1093.96 43.836C1093.96 42.796 1093.67 41.984 1093.09 41.4C1092.53 40.816 1091.71 40.524 1090.63 40.524H1089.12V47.1H1090.63ZM1097.08 40.356C1096.87 40.356 1096.69 40.284 1096.55 40.14C1096.41 39.996 1096.33 39.82 1096.33 39.612C1096.33 39.404 1096.41 39.228 1096.55 39.084C1096.69 38.94 1096.87 38.868 1097.08 38.868C1097.28 38.868 1097.45 38.94 1097.58 39.084C1097.73 39.228 1097.8 39.404 1097.8 39.612C1097.8 39.82 1097.73 39.996 1097.58 40.14C1097.45 40.284 1097.28 40.356 1097.08 40.356ZM1097.61 41.424V48H1096.51V41.424H1097.61ZM1101.79 48.108C1101.29 48.108 1100.84 48.024 1100.44 47.856C1100.04 47.68 1099.72 47.44 1099.49 47.136C1099.26 46.824 1099.13 46.468 1099.11 46.068H1100.23C1100.27 46.396 1100.42 46.664 1100.69 46.872C1100.97 47.08 1101.33 47.184 1101.78 47.184C1102.2 47.184 1102.53 47.092 1102.77 46.908C1103.01 46.724 1103.13 46.492 1103.13 46.212C1103.13 45.924 1103 45.712 1102.74 45.576C1102.49 45.432 1102.09 45.292 1101.55 45.156C1101.07 45.028 1100.67 44.9 1100.35 44.772C1100.05 44.636 1099.79 44.44 1099.56 44.184C1099.35 43.92 1099.24 43.576 1099.24 43.152C1099.24 42.816 1099.34 42.508 1099.54 42.228C1099.74 41.948 1100.02 41.728 1100.39 41.568C1100.76 41.4 1101.18 41.316 1101.65 41.316C1102.38 41.316 1102.97 41.5 1103.41 41.868C1103.86 42.236 1104.1 42.74 1104.13 43.38H1103.04C1103.02 43.036 1102.88 42.76 1102.62 42.552C1102.37 42.344 1102.04 42.24 1101.61 42.24C1101.22 42.24 1100.91 42.324 1100.68 42.492C1100.45 42.66 1100.33 42.88 1100.33 43.152C1100.33 43.368 1100.4 43.548 1100.53 43.692C1100.68 43.828 1100.85 43.94 1101.06 44.028C1101.28 44.108 1101.57 44.2 1101.95 44.304C1102.42 44.432 1102.81 44.56 1103.1 44.688C1103.4 44.808 1103.65 44.992 1103.86 45.24C1104.07 45.488 1104.19 45.812 1104.19 46.212C1104.19 46.572 1104.09 46.896 1103.89 47.184C1103.69 47.472 1103.41 47.7 1103.04 47.868C1102.68 48.028 1102.27 48.108 1101.79 48.108ZM1106.83 42.648C1107.05 42.256 1107.38 41.936 1107.81 41.688C1108.24 41.44 1108.74 41.316 1109.29 41.316C1109.88 41.316 1110.41 41.456 1110.88 41.736C1111.36 42.016 1111.73 42.412 1112 42.924C1112.27 43.428 1112.41 44.016 1112.41 44.688C1112.41 45.352 1112.27 45.944 1112 46.464C1111.73 46.984 1111.35 47.388 1110.87 47.676C1110.4 47.964 1109.87 48.108 1109.29 48.108C1108.72 48.108 1108.22 47.984 1107.79 47.736C1107.36 47.488 1107.04 47.172 1106.83 46.788V48H1105.74V39.12H1106.83V42.648ZM1111.29 44.688C1111.29 44.192 1111.19 43.76 1110.99 43.392C1110.79 43.024 1110.52 42.744 1110.18 42.552C1109.84 42.36 1109.47 42.264 1109.06 42.264C1108.66 42.264 1108.29 42.364 1107.94 42.564C1107.61 42.756 1107.34 43.04 1107.13 43.416C1106.93 43.784 1106.83 44.212 1106.83 44.7C1106.83 45.196 1106.93 45.632 1107.13 46.008C1107.34 46.376 1107.61 46.66 1107.94 46.86C1108.29 47.052 1108.66 47.148 1109.06 47.148C1109.47 47.148 1109.84 47.052 1110.18 46.86C1110.52 46.66 1110.79 46.376 1110.99 46.008C1111.19 45.632 1111.29 45.192 1111.29 44.688ZM1119.68 41.424V48H1118.59V47.028C1118.38 47.364 1118.09 47.628 1117.71 47.82C1117.34 48.004 1116.93 48.096 1116.49 48.096C1115.97 48.096 1115.51 47.992 1115.11 47.784C1114.7 47.568 1114.37 47.248 1114.13 46.824C1113.9 46.4 1113.79 45.884 1113.79 45.276V41.424H1114.87V45.132C1114.87 45.78 1115.03 46.28 1115.36 46.632C1115.69 46.976 1116.13 47.148 1116.7 47.148C1117.29 47.148 1117.75 46.968 1118.08 46.608C1118.42 46.248 1118.59 45.724 1118.59 45.036V41.424H1119.68ZM1122.61 42.492C1122.81 42.116 1123.08 41.824 1123.43 41.616C1123.79 41.408 1124.23 41.304 1124.74 41.304V42.432H1124.45C1123.23 42.432 1122.61 43.096 1122.61 44.424V48H1121.52V41.424H1122.61V42.492ZM1128.33 48.108C1127.82 48.108 1127.37 48.024 1126.97 47.856C1126.57 47.68 1126.25 47.44 1126.02 47.136C1125.79 46.824 1125.66 46.468 1125.64 46.068H1126.77C1126.8 46.396 1126.95 46.664 1127.22 46.872C1127.5 47.08 1127.87 47.184 1128.31 47.184C1128.73 47.184 1129.06 47.092 1129.3 46.908C1129.54 46.724 1129.66 46.492 1129.66 46.212C1129.66 45.924 1129.53 45.712 1129.27 45.576C1129.02 45.432 1128.62 45.292 1128.09 45.156C1127.6 45.028 1127.2 44.9 1126.89 44.772C1126.58 44.636 1126.32 44.44 1126.09 44.184C1125.88 43.92 1125.77 43.576 1125.77 43.152C1125.77 42.816 1125.87 42.508 1126.07 42.228C1126.27 41.948 1126.55 41.728 1126.92 41.568C1127.29 41.4 1127.71 41.316 1128.18 41.316C1128.91 41.316 1129.5 41.5 1129.95 41.868C1130.39 42.236 1130.63 42.74 1130.67 43.38H1129.57C1129.55 43.036 1129.41 42.76 1129.15 42.552C1128.91 42.344 1128.57 42.24 1128.15 42.24C1127.75 42.24 1127.44 42.324 1127.21 42.492C1126.98 42.66 1126.86 42.88 1126.86 43.152C1126.86 43.368 1126.93 43.548 1127.07 43.692C1127.21 43.828 1127.39 43.94 1127.59 44.028C1127.81 44.108 1128.11 44.2 1128.48 44.304C1128.95 44.432 1129.34 44.56 1129.63 44.688C1129.93 44.808 1130.18 44.992 1130.39 45.24C1130.61 45.488 1130.72 45.812 1130.73 46.212C1130.73 46.572 1130.63 46.896 1130.43 47.184C1130.23 47.472 1129.94 47.7 1129.57 47.868C1129.21 48.028 1128.8 48.108 1128.33 48.108ZM1138.27 44.46C1138.27 44.668 1138.26 44.888 1138.23 45.12H1132.98C1133.02 45.768 1133.24 46.276 1133.64 46.644C1134.04 47.004 1134.54 47.184 1135.11 47.184C1135.58 47.184 1135.98 47.076 1136.29 46.86C1136.61 46.636 1136.83 46.34 1136.96 45.972H1138.14C1137.96 46.604 1137.61 47.12 1137.08 47.52C1136.55 47.912 1135.9 48.108 1135.11 48.108C1134.49 48.108 1133.93 47.968 1133.43 47.688C1132.94 47.408 1132.56 47.012 1132.28 46.5C1132 45.98 1131.86 45.38 1131.86 44.7C1131.86 44.02 1132 43.424 1132.27 42.912C1132.54 42.4 1132.92 42.008 1133.41 41.736C1133.9 41.456 1134.47 41.316 1135.11 41.316C1135.74 41.316 1136.29 41.452 1136.77 41.724C1137.25 41.996 1137.62 42.372 1137.87 42.852C1138.14 43.324 1138.27 43.86 1138.27 44.46ZM1137.14 44.232C1137.14 43.816 1137.05 43.46 1136.86 43.164C1136.68 42.86 1136.43 42.632 1136.11 42.48C1135.8 42.32 1135.45 42.24 1135.06 42.24C1134.51 42.24 1134.04 42.416 1133.65 42.768C1133.26 43.12 1133.04 43.608 1132.99 44.232H1137.14ZM1139.3 44.688C1139.3 44.016 1139.44 43.428 1139.71 42.924C1139.98 42.412 1140.35 42.016 1140.83 41.736C1141.31 41.456 1141.84 41.316 1142.43 41.316C1142.95 41.316 1143.42 41.436 1143.86 41.676C1144.3 41.908 1144.64 42.216 1144.87 42.6V39.12H1145.97V48H1144.87V46.764C1144.65 47.156 1144.33 47.48 1143.91 47.736C1143.49 47.984 1142.99 48.108 1142.42 48.108C1141.84 48.108 1141.31 47.964 1140.83 47.676C1140.35 47.388 1139.98 46.984 1139.71 46.464C1139.44 45.944 1139.3 45.352 1139.3 44.688ZM1144.87 44.7C1144.87 44.204 1144.77 43.772 1144.57 43.404C1144.37 43.036 1144.1 42.756 1143.75 42.564C1143.42 42.364 1143.05 42.264 1142.64 42.264C1142.23 42.264 1141.86 42.36 1141.52 42.552C1141.19 42.744 1140.92 43.024 1140.72 43.392C1140.52 43.76 1140.42 44.192 1140.42 44.688C1140.42 45.192 1140.52 45.632 1140.72 46.008C1140.92 46.376 1141.19 46.66 1141.52 46.86C1141.86 47.052 1142.23 47.148 1142.64 47.148C1143.05 47.148 1143.42 47.052 1143.75 46.86C1144.1 46.66 1144.37 46.376 1144.57 46.008C1144.77 45.632 1144.87 45.196 1144.87 44.7Z" fill="#404040"/>
</g>
<defs>
<filter id="filter0_d_1517_5385" x="0" y="0" width="1151" height="61" filterUnits="userSpaceOnUse" color-interpolation-filters="sRGB">
<feFlood flood-opacity="0" result="BackgroundImageFix"/>
<feColorMatrix in="SourceAlpha" type="matrix" values="0 0 0 0 0 0 0 0 0 0 0 0 0 0 0 0 0 0 127 0" result="hardAlpha"/>
<feOffset dy="4"/>
<feGaussianBlur stdDeviation="2"/>
<feComposite in2="hardAlpha" operator="out"/>
<feColorMatrix type="matrix" values="0 0 0 0 0 0 0 0 0 0 0 0 0 0 0 0 0 0 0.25 0"/>
<feBlend mode="normal" in2="BackgroundImageFix" result="effect1_dropShadow_1517_5385"/>
<feBlend mode="normal" in="SourceGraphic" in2="effect1_dropShadow_1517_5385" result="shape"/>
</filter>
</defs>
</svg>
